<svg width="512" height="512" viewBox="0 0 512 512" fill="none" xmlns="http://www.w3.org/2000/svg">
<rect width="512" height="512" rx="35" fill="#111111"/>
<path d="M392.045 167.291C389.671 171.065 387.726 174.195 387.726 174.233C387.726 174.309 387.915 174.435 392.588 177.262C402.073 183.018 403.399 183.801 403.512 183.763C403.576 183.737 405.596 180.595 407.983 176.783C411.305 171.494 412.303 169.803 412.189 169.702C411.962 169.487 396.794 160.538 396.554 160.475C396.402 160.437 395.24 162.192 392.045 167.291Z" fill="white"/>
<path d="M99.0783 174.094C97.9669 174.157 96.123 174.309 94.9737 174.448C93.8244 174.586 92.7004 174.7 92.4731 174.7C92.2457 174.7 91.2228 174.839 90.1998 175.016C89.1768 175.192 87.6612 175.445 86.8277 175.584C85.9941 175.735 84.6933 175.975 83.9229 176.152C83.1651 176.316 81.9653 176.568 81.2707 176.72C80.5761 176.871 79.5278 177.123 78.9342 177.288C78.3407 177.452 77.4187 177.704 76.8883 177.843C74.2108 178.562 73.3141 178.827 71.4828 179.446C71.1671 179.56 70.6619 179.724 70.3462 179.812C70.0305 179.9 69.2979 180.165 68.7044 180.38C68.1108 180.595 67.4667 180.822 67.252 180.872C67.0499 180.923 66.6331 181.099 66.3426 181.238C66.0522 181.39 65.7238 181.516 65.6228 181.516C65.5091 181.516 65.1807 181.617 64.8902 181.756C64.2335 182.046 63.059 182.538 62.2002 182.879C60.4825 183.561 56.0117 185.593 55.1276 186.098C54.9887 186.173 54.4204 186.464 53.8647 186.754C53.309 187.044 52.7407 187.335 52.6017 187.41C52.4628 187.486 52.2102 187.612 52.0334 187.688C51.8566 187.764 51.4903 187.966 51.2125 188.143C50.9346 188.319 50.5431 188.546 50.3284 188.647C50.1264 188.761 49.6717 189.013 49.3181 189.215C48.9771 189.417 48.4466 189.708 48.1562 189.859C47.8657 189.998 47.5626 190.2 47.4742 190.301C47.3984 190.402 47.2595 190.478 47.1711 190.478C47.0953 190.478 46.8932 190.591 46.729 190.73C46.5648 190.869 46.388 190.982 46.3375 190.982C46.287 190.982 45.8702 191.235 45.4156 191.55C44.9483 191.866 44.5567 192.118 44.5189 192.118C44.481 192.118 44.0895 192.371 43.6474 192.686C43.1928 193.002 42.7634 193.254 42.7002 193.254C42.6244 193.254 42.5613 193.305 42.5613 193.355C42.5613 193.418 42.4097 193.545 42.2203 193.646C42.0182 193.747 41.8414 193.86 41.8035 193.898C41.7656 193.936 41.3489 194.252 40.8563 194.592C40.3764 194.921 39.9217 195.249 39.8459 195.299C39.5934 195.501 38.8103 196.094 38.4567 196.347C38.2673 196.486 37.8126 196.839 37.4337 197.129C37.0675 197.432 36.7391 197.672 36.6886 197.672C36.6507 197.672 36.4865 197.811 36.3223 197.988C36.1581 198.164 35.9939 198.303 35.9434 198.303C35.9055 198.303 35.7666 198.404 35.6277 198.518C35.5014 198.644 35.1857 198.909 34.9204 199.124C34.6552 199.326 34.3268 199.603 34.2006 199.717C34.0743 199.843 33.948 199.944 33.9227 199.944C33.8974 199.944 33.6196 200.184 33.3039 200.474C32.9881 200.777 32.3188 201.383 31.8136 201.837C30.096 203.377 27.0144 206.558 26.0166 207.833C25.8019 208.11 25.5746 208.363 25.5241 208.401C25.3852 208.502 23.2887 211.165 22.8972 211.733C22.7077 212.011 22.4677 212.301 22.392 212.351C22.3036 212.402 22.2278 212.541 22.2278 212.629C22.2278 212.73 22.1773 212.818 22.1141 212.818C21.9878 212.818 21.6847 213.298 21.5205 213.727C21.4826 213.853 21.3942 213.954 21.3311 213.954C21.2679 213.954 21.1543 214.081 21.0911 214.232C20.9522 214.56 20.687 214.989 20.5733 215.09C20.3586 215.28 18.742 218.183 17.8832 219.95C16.7087 222.361 16.6708 222.449 16.1656 223.737C15.9509 224.292 15.6857 224.936 15.5847 225.163C15.4836 225.39 15.4079 225.655 15.4079 225.756C15.4079 225.857 15.3321 226.122 15.231 226.349C15.13 226.576 14.9532 227.107 14.8395 227.523C14.7259 227.94 14.5491 228.533 14.448 228.848C14.347 229.164 14.2712 229.53 14.2712 229.656C14.2712 229.795 14.1954 230.186 14.0944 230.54C13.9934 230.893 13.8165 231.726 13.7155 232.383C13.6018 233.039 13.4503 233.973 13.3745 234.465C13.2987 234.945 13.1977 236.939 13.1724 238.883C13.0967 243.099 13.2482 244.702 14.107 248.791C14.3849 250.116 14.9532 252.111 15.2437 252.792C15.3321 253.007 15.4079 253.247 15.4079 253.322C15.4079 253.398 15.4836 253.638 15.5847 253.865C15.6857 254.092 15.9636 254.761 16.2035 255.355C16.6582 256.44 17.6306 258.384 18.0601 259.078C18.1863 259.28 18.4137 259.659 18.5526 259.924C18.6915 260.176 19.0452 260.719 19.3483 261.135C19.6514 261.552 19.9797 262.019 20.0808 262.17C20.1818 262.335 20.3713 262.549 20.4975 262.663C20.6112 262.764 20.7122 262.903 20.7122 262.966C20.7122 263.168 23.5413 266.083 23.7433 266.083C23.8065 266.083 23.8696 266.134 23.8696 266.184C23.8696 266.247 24.1727 266.525 24.5264 266.815C24.8926 267.106 25.2841 267.421 25.3852 267.51C25.6504 267.749 28.0121 269.277 28.4794 269.516C30.4749 270.526 31.4221 270.968 32.1798 271.233C33.2155 271.612 33.4554 271.7 34.2006 271.978C34.63 272.129 35.1225 272.268 35.2867 272.268C35.4509 272.268 35.8298 272.356 36.1329 272.47C36.436 272.584 36.979 272.71 37.32 272.76C37.6737 272.823 38.5451 272.975 39.2776 273.126C41.2731 273.505 43.4075 273.682 47.0321 273.745C53.4984 273.871 57.8177 273.278 64.4103 271.385C66.431 270.804 67.1762 270.577 67.9213 270.299C68.3507 270.135 68.7801 269.996 68.8812 269.996C68.9696 269.996 69.3232 269.895 69.6642 269.756C70.0052 269.63 70.4851 269.453 70.7251 269.378C72.5564 268.734 74.3245 268.09 75.0191 267.813C75.4738 267.636 76.0421 267.421 76.2821 267.345C76.522 267.257 77.0398 267.055 77.4187 266.904C78.4543 266.475 79.4394 266.083 80.0709 265.831C80.5635 265.629 81.5233 265.238 82.9125 264.632C83.1272 264.543 83.6072 264.329 83.9987 264.14C84.3902 263.963 84.7438 263.811 84.7943 263.811C84.8322 263.811 85.4258 263.559 86.1078 263.243C86.7772 262.928 87.5602 262.562 87.8381 262.436C89.1389 261.83 90.8944 260.997 91.1217 260.87C91.2606 260.795 91.5511 260.656 91.7532 260.567C91.9679 260.467 92.2457 260.328 92.3847 260.252C92.5236 260.164 93.0919 259.873 93.6476 259.583C94.2033 259.293 94.8853 258.927 95.1632 258.763C95.441 258.598 95.9336 258.333 96.2746 258.157C96.6029 257.98 96.8681 257.791 96.8681 257.74C96.8681 257.677 96.9313 257.627 97.0071 257.627C97.0955 257.627 97.4365 257.462 97.7648 257.248L98.3837 256.869V260.378C98.3837 262.297 98.3079 267.333 98.1942 271.574C98.0932 275.802 97.9164 283.3 97.8154 288.235C97.6133 297.664 97.3102 311.825 97.146 318.692L97.0576 322.756L97.4996 322.68C97.7396 322.642 98.2069 322.554 98.5226 322.491L99.1036 322.365L99.1793 318.995C99.2172 317.139 99.2804 315.486 99.3056 315.309C99.3435 315.132 99.4319 314.4 99.5203 313.668C99.7729 311.27 100.215 309.755 100.67 309.755C100.859 309.755 100.973 309.932 101.263 310.652C101.503 311.257 101.907 314.085 101.983 315.763C102.034 316.672 102.071 318.364 102.071 319.525C102.071 320.673 102.071 321.62 102.084 321.62C102.097 321.62 102.526 321.481 103.031 321.305C103.549 321.128 104.092 320.989 104.231 320.976C104.534 320.964 105.608 320.509 105.368 320.497C105.279 320.484 105.014 320.585 104.762 320.699C104.522 320.812 104.294 320.888 104.269 320.85C104.206 320.787 103.915 311.788 103.625 300.832C103.524 296.919 103.347 290.557 103.246 286.695C103.145 282.82 102.968 276.383 102.867 272.394C102.766 268.406 102.615 263.004 102.539 260.403C102.438 256.794 102.438 255.67 102.551 255.632C102.64 255.594 102.892 255.418 103.12 255.216C103.347 255.014 103.562 254.85 103.612 254.85C103.65 254.85 103.789 254.761 103.915 254.648C104.029 254.547 104.698 254.004 105.393 253.449C106.088 252.906 106.744 252.376 106.845 252.3C106.946 252.212 107.376 251.846 107.793 251.505C111.026 248.829 114.726 245.068 116.633 242.505C116.709 242.417 116.861 242.228 116.987 242.089C117.101 241.963 117.202 241.799 117.202 241.723C117.202 241.66 117.277 241.559 117.366 241.508C117.442 241.458 117.581 241.319 117.644 241.193C117.719 241.079 118.048 240.574 118.401 240.057C119.071 239.072 119.26 238.782 119.475 238.378C119.551 238.239 119.715 237.949 119.854 237.747C120.182 237.229 121.748 234.087 121.748 233.922C121.748 233.847 121.824 233.632 121.925 233.43C122.67 231.953 123.428 228.949 123.718 226.324C123.946 224.267 123.933 222.979 123.706 221.515C123.403 219.609 123.087 218.65 122.165 216.883C121.268 215.141 121.243 215.09 121.104 215.09C121.041 215.09 120.99 215.027 120.99 214.964C120.99 214.762 119.829 213.273 118.742 212.086C117.896 211.152 116.078 209.537 115.888 209.537C115.85 209.537 115.686 209.423 115.522 209.284C115.37 209.145 114.865 208.843 114.423 208.615C113.968 208.376 113.438 208.098 113.223 207.984C112.061 207.391 109.94 206.747 107.856 206.381C106.707 206.179 105.86 206.129 103.789 206.129C101.187 206.129 101.175 206.129 101.124 206.407C101.099 206.571 101.074 205.876 101.061 204.879C101.049 203.882 101.011 203.024 100.973 202.986C100.947 202.935 100.859 199.742 100.783 195.892C100.619 188.319 100.505 186.54 100.379 189.973C100.329 191.121 100.24 193.532 100.164 195.337C99.9245 201.143 99.7477 206.343 99.6466 210.673C99.5961 212.995 99.4572 218.057 99.3435 221.906C98.9899 234.137 98.7499 243.616 98.7626 245.636C98.7626 248.45 98.4973 256.251 98.3837 256.566C98.3205 256.718 97.8659 257.033 97.2218 257.349C96.6534 257.639 96.0346 257.967 95.8578 258.068C95.681 258.169 95.1758 258.422 94.7211 258.624C94.2665 258.838 93.7613 259.091 93.5845 259.179C93.4077 259.28 92.9909 259.482 92.6373 259.633C92.2963 259.798 91.7279 260.05 91.3743 260.214C90.5786 260.593 89.6188 261.022 88.9747 261.3C88.3432 261.577 87.1055 262.145 86.4741 262.448C86.1962 262.574 85.9184 262.675 85.8426 262.675C85.7542 262.675 85.4132 262.814 85.0596 262.978C84.7186 263.142 84.1123 263.407 83.7335 263.572C83.3546 263.723 82.7357 263.975 82.3695 264.14C82.0032 264.304 81.637 264.442 81.5486 264.442C81.4601 264.442 81.3339 264.493 81.2707 264.556C81.1949 264.619 80.8287 264.783 80.4498 264.922C80.0709 265.061 79.3889 265.326 78.9342 265.503C76.6862 266.374 76.6104 266.399 73.5036 267.51C71.2176 268.33 70.3083 268.646 68.7675 269.138C67.8077 269.441 67.4035 269.567 64.9155 270.299C64.3219 270.476 63.3621 270.741 62.7685 270.892C62.1749 271.031 61.2908 271.258 60.7857 271.397C60.2931 271.523 59.7753 271.637 59.649 271.637C59.5227 271.637 58.8028 271.776 58.0324 271.94C55.355 272.546 53.8521 272.685 49.6591 272.748C47.2595 272.773 45.2261 272.735 44.481 272.659C40.3259 272.192 39.5176 272.054 36.8149 271.359C35.855 271.119 33.9353 270.514 32.7103 270.059C31.5357 269.63 29.0225 268.305 27.6458 267.383C26.8502 266.866 26.1808 266.399 26.1429 266.348C26.105 266.31 25.8525 266.109 25.5746 265.907C25.2968 265.692 24.9431 265.402 24.7916 265.238C24.64 265.074 24.4632 264.947 24.4127 264.935C24.3622 264.935 24.1096 264.682 23.8696 264.379C23.6297 264.076 23.3518 263.824 23.276 263.824C23.1876 263.811 23.1119 263.748 23.1119 263.66C23.1119 263.572 22.9729 263.382 22.8214 263.243C22.4804 262.953 21.6216 261.969 21.3437 261.539C21.2427 261.388 21.1038 261.186 21.028 261.11C20.7375 260.769 20.3334 260.151 20.3334 260.037C20.3334 259.974 20.2828 259.899 20.2323 259.873C20.1187 259.835 18.8178 257.538 18.8178 257.387C18.8178 257.336 18.6663 256.983 18.4642 256.604C18.2748 256.226 18.0095 255.582 17.8706 255.165C17.7443 254.749 17.5801 254.345 17.5296 254.282C17.4791 254.206 17.3907 253.916 17.3149 253.651C17.2518 253.373 17.075 252.742 16.936 252.262C16.6203 251.202 16.254 249.347 15.9888 247.504C15.7615 245.951 15.711 240.587 15.913 239.135C15.9888 238.643 16.0646 237.961 16.1025 237.621C16.1783 236.939 16.4561 235.462 16.7466 234.15C17.1634 232.282 18.4389 228.306 18.7042 228.028C18.7673 227.965 18.8178 227.839 18.8178 227.75C18.8178 227.536 20.2071 224.532 20.586 223.926C20.6491 223.825 21.0027 223.194 21.3564 222.537C21.71 221.881 22.051 221.313 22.1141 221.3C22.1773 221.275 22.2278 221.174 22.2278 221.086C22.2278 220.985 22.3036 220.833 22.392 220.745C22.5309 220.594 23.9075 218.599 24.1854 218.145C24.2611 218.019 24.3874 217.88 24.4758 217.829C24.5516 217.779 24.6274 217.64 24.6274 217.552C24.6274 217.451 24.6905 217.362 24.7537 217.362C24.8295 217.362 24.9431 217.224 25.0063 217.047C25.0694 216.87 25.1831 216.731 25.2589 216.731C25.322 216.731 25.3852 216.643 25.3852 216.542C25.3852 216.428 25.4736 216.315 25.5746 216.277C25.6756 216.226 25.764 216.138 25.764 216.075C25.764 215.949 26.2313 215.393 27.9742 213.386C29.6666 211.443 31.4726 209.625 34.1627 207.151C34.4405 206.899 35.0846 206.356 35.5898 205.952C36.0824 205.548 36.4991 205.17 36.4991 205.106C36.4991 205.043 36.5496 204.993 36.6254 204.993C36.6886 204.993 36.878 204.879 37.0296 204.753C37.4842 204.362 37.8378 204.071 38.2294 203.769C38.4188 203.617 38.9619 203.188 39.4165 202.822C39.8712 202.456 40.4016 202.039 40.5911 201.9C41.4751 201.257 42.1193 200.752 42.1571 200.664C42.1824 200.613 42.2708 200.575 42.3718 200.575C42.4602 200.575 42.6118 200.487 42.7002 200.373C42.7886 200.26 43.2433 199.919 43.6979 199.616C44.8725 198.821 45.1251 198.644 45.3145 198.467C45.4029 198.379 45.5292 198.303 45.5797 198.303C45.6303 198.303 45.845 198.164 46.047 197.988C46.2491 197.811 46.4891 197.672 46.5775 197.672C46.6532 197.672 46.729 197.622 46.729 197.559C46.729 197.495 46.9185 197.357 47.1584 197.243C47.3858 197.142 47.651 196.965 47.7394 196.852C47.8278 196.751 47.9415 196.662 48.0046 196.662C48.0551 196.662 48.4719 196.41 48.9266 196.094C49.3938 195.779 49.798 195.526 49.8359 195.526C49.8738 195.526 50.0885 195.388 50.3158 195.211C50.5431 195.034 50.7831 194.895 50.8589 194.895C50.922 194.895 51.0862 194.794 51.2251 194.668C51.5156 194.428 52.046 194.1 52.627 193.822C52.8417 193.721 53.0564 193.583 53.1069 193.507C53.1574 193.431 53.3721 193.292 53.5868 193.179C54.0289 192.964 54.3446 192.8 55.5697 192.081C56.479 191.538 56.6558 191.449 57.4388 191.02C57.7293 190.856 58.2345 190.579 58.5755 190.402C58.9039 190.212 59.5101 189.897 59.9268 189.695C60.3436 189.506 60.7983 189.266 60.9372 189.19C61.1772 189.051 61.695 188.786 62.1749 188.559C62.2886 188.509 62.4906 188.408 62.6169 188.344C62.7306 188.281 63.4 187.953 64.0946 187.625C64.7892 187.309 65.5596 186.931 65.8122 186.805C66.0648 186.666 66.3426 186.565 66.4184 186.565C66.4942 186.565 66.7847 186.426 67.0625 186.249C67.3404 186.072 67.6182 185.934 67.694 185.934C67.8203 185.934 68.3128 185.732 69.6516 185.113C70.0052 184.962 70.4851 184.76 70.7251 184.671C70.965 184.583 71.2176 184.457 71.2808 184.394C71.3566 184.343 71.5207 184.293 71.6723 184.293C71.8238 184.293 71.988 184.242 72.0638 184.167C72.1901 184.04 72.9352 183.75 75.6506 182.778C75.8905 182.69 76.4084 182.475 76.7999 182.324C77.1914 182.16 77.6082 182.021 77.7218 182.021C77.8355 182.021 78.1007 181.932 78.2901 181.831C78.4922 181.731 78.8711 181.592 79.1363 181.529C79.4142 181.465 79.9446 181.301 80.3235 181.163C82.319 180.456 87.6612 178.979 90.4271 178.386C92.9909 177.818 97.7017 176.972 98.2195 176.972C98.4342 176.972 99.4067 176.858 100.367 176.732C105.583 176.013 113.299 176.013 119.096 176.732C122.582 177.174 127.128 178.121 129.389 178.891C129.806 179.029 130.387 179.193 130.677 179.257C130.98 179.32 131.385 179.446 131.587 179.56C131.801 179.661 132.067 179.749 132.193 179.749C132.319 179.749 132.711 179.9 133.052 180.064C133.405 180.241 133.759 180.38 133.835 180.38C133.986 180.38 134.352 180.531 135.893 181.226C136.272 181.39 136.815 181.63 137.093 181.756C138.356 182.324 141.172 183.75 141.526 184.002C141.741 184.167 141.955 184.293 142.019 184.293C142.094 184.293 142.978 184.823 143.964 185.454C144.14 185.58 144.494 185.782 144.747 185.921C144.987 186.06 145.264 186.262 145.353 186.363C145.454 186.476 145.593 186.565 145.681 186.565C145.757 186.565 145.934 186.678 146.06 186.817C146.186 186.956 146.363 187.07 146.464 187.07C146.553 187.07 146.628 187.107 146.628 187.158C146.628 187.221 146.894 187.423 147.197 187.638C147.512 187.84 147.765 188.054 147.765 188.105C147.765 188.168 147.828 188.206 147.904 188.206C148.043 188.206 148.839 188.837 151.175 190.78C152.526 191.916 155.848 195.198 156.795 196.347C157.149 196.763 157.49 197.155 157.566 197.23C157.881 197.521 160.016 200.31 160.016 200.424C160.016 200.487 160.104 200.575 160.205 200.626C160.306 200.664 160.395 200.777 160.395 200.878C160.395 200.979 160.432 201.08 160.496 201.105C160.634 201.168 161.152 201.938 161.152 202.09C161.152 202.153 161.203 202.216 161.253 202.216C161.316 202.216 161.43 202.342 161.519 202.494C161.695 202.834 161.86 203.1 162.314 203.806C162.491 204.084 162.807 204.614 162.996 204.968C163.186 205.334 163.4 205.624 163.451 205.624C163.501 205.624 163.552 205.738 163.552 205.876C163.552 206.015 163.602 206.129 163.653 206.129C163.703 206.129 163.906 206.457 164.095 206.848C164.284 207.252 164.499 207.669 164.562 207.77C164.625 207.871 164.815 208.287 164.992 208.678C165.168 209.082 165.472 209.739 165.648 210.13C165.989 210.9 166.027 211.014 166.394 211.935C166.52 212.251 166.697 212.68 166.785 212.907C166.886 213.121 166.962 213.361 166.962 213.437C166.962 213.513 167.038 213.753 167.139 213.98C167.24 214.207 167.417 214.737 167.543 215.154C167.656 215.57 167.833 216.138 167.922 216.416C168.781 219.18 169.475 223.181 169.816 227.245C170.233 232.307 169.804 238.845 168.654 244.689C168.275 246.62 167.707 249.157 167.467 249.99C167.404 250.192 167.265 250.71 167.151 251.126C166.709 252.754 166.343 253.954 165.762 255.733C165.181 257.513 165.055 257.879 164.853 258.346C164.764 258.561 164.689 258.8 164.689 258.876C164.689 258.952 164.6 259.217 164.486 259.482C164.07 260.441 163.956 260.732 163.741 261.287C163.615 261.602 163.426 262.082 163.299 262.36C163.173 262.637 162.946 263.18 162.794 263.559C162.643 263.938 162.466 264.304 162.403 264.367C162.339 264.442 162.289 264.569 162.289 264.657C162.289 264.745 162.087 265.263 161.834 265.793C161.582 266.336 161.241 267.093 161.064 267.472C160.9 267.85 160.71 268.254 160.647 268.355C160.533 268.519 160.432 268.747 160.003 269.681C159.94 269.819 159.839 270.021 159.776 270.122C159.713 270.223 159.548 270.539 159.409 270.817C159.27 271.094 158.955 271.687 158.715 272.142C158.475 272.596 158.033 273.417 157.73 273.972C157.439 274.527 157.161 275.007 157.123 275.045C157.086 275.083 156.934 275.335 156.795 275.613C156.656 275.891 156.517 276.143 156.479 276.181C156.404 276.244 154.244 279.816 153.979 280.296C153.89 280.46 153.764 280.599 153.714 280.599C153.65 280.599 153.562 280.737 153.524 280.914C153.474 281.091 153.385 281.23 153.322 281.23C153.246 281.23 153.196 281.318 153.196 281.419C153.196 281.533 153.12 281.646 153.019 281.684C152.918 281.722 152.804 281.886 152.766 282.063C152.716 282.227 152.627 282.366 152.564 282.366C152.488 282.366 152.438 282.454 152.438 282.555C152.438 282.669 152.35 282.782 152.249 282.82C152.147 282.871 152.059 282.946 152.059 283.009C152.059 283.123 151.604 283.83 151.428 284.007C151.39 284.044 151.2 284.309 151.011 284.612C150.821 284.903 150.607 285.143 150.544 285.143C150.468 285.143 150.417 285.231 150.417 285.332C150.417 285.445 150.329 285.559 150.228 285.597C150.127 285.647 150.038 285.736 150.038 285.799C150.038 285.925 148.371 288.134 147.954 288.563C147.853 288.677 147.765 288.803 147.765 288.853C147.765 288.904 147.601 289.106 147.386 289.308C147.184 289.51 147.007 289.712 147.007 289.762C147.007 289.813 146.818 290.052 146.603 290.305C146.376 290.557 145.959 291.05 145.681 291.39C145.239 291.921 144.052 293.271 143.66 293.675C143.597 293.751 143.054 294.344 142.461 294.988C141.374 296.199 137.32 300.289 137.219 300.289C137.194 300.289 136.891 300.554 136.55 300.895C135.805 301.614 135.186 302.157 134.188 303.003C133.443 303.634 132.976 304.025 132.433 304.517C132.269 304.656 131.928 304.934 131.675 305.148C131.41 305.35 131.119 305.603 131.031 305.678C130.93 305.767 130.816 305.843 130.766 305.843C130.715 305.843 130.551 305.981 130.387 306.158C130.223 306.335 130.071 306.474 130.033 306.474C129.957 306.474 129.717 306.663 129.01 307.269C128.783 307.458 128.568 307.61 128.518 307.61C128.48 307.61 128.341 307.698 128.227 307.799C127.634 308.279 126.27 309.251 126.169 309.251C126.118 309.251 126.042 309.288 126.017 309.351C125.967 309.478 124.678 310.386 124.539 310.386C124.476 310.386 124.35 310.475 124.262 310.588C124.173 310.702 123.984 310.841 123.832 310.904C123.617 311.005 122.948 311.447 122.569 311.737C122.506 311.8 122.026 312.103 121.508 312.406C121.003 312.722 120.372 313.1 120.119 313.252C119.866 313.403 119.576 313.567 119.475 313.618C119.374 313.668 119.147 313.807 118.97 313.921C118.793 314.047 118.263 314.35 117.77 314.615C117.29 314.88 116.646 315.233 116.355 315.397C114.246 316.546 113.867 316.748 112.592 317.329C112.251 317.493 111.796 317.707 111.582 317.808C111.379 317.922 111.114 318.048 111.013 318.086C110.912 318.136 110.571 318.288 110.255 318.427C109.94 318.566 109.258 318.868 108.74 319.083C108.222 319.31 107.641 319.575 107.452 319.676C107.275 319.777 107.06 319.853 106.997 319.853C106.921 319.853 106.593 319.979 106.252 320.118C105.178 320.598 105.848 320.497 107.351 319.967C108.146 319.689 108.98 319.411 109.182 319.361C109.397 319.31 109.801 319.134 110.091 318.995C110.382 318.843 110.697 318.717 110.786 318.717C110.874 318.717 111.165 318.603 111.43 318.465C111.683 318.326 111.96 318.212 112.036 318.212C112.099 318.212 112.491 318.073 112.882 317.884C113.274 317.707 113.779 317.493 113.981 317.404C114.916 316.975 115.901 316.533 116.128 316.407C116.267 316.331 116.785 316.079 117.265 315.852C117.757 315.612 118.263 315.36 118.401 315.284C118.54 315.195 118.894 315.006 119.197 314.842C120.422 314.173 120.826 313.946 121.243 313.693C121.483 313.542 121.824 313.353 122.001 313.264C122.178 313.176 122.481 312.999 122.695 312.848C123.112 312.57 123.138 312.557 124.363 311.851C124.83 311.573 125.335 311.245 125.461 311.119C125.6 310.992 125.777 310.891 125.853 310.891C125.941 310.891 126.105 310.778 126.232 310.639C126.358 310.5 126.522 310.386 126.611 310.386C126.686 310.386 126.888 310.248 127.053 310.071C127.217 309.894 127.406 309.755 127.469 309.755C127.533 309.755 127.735 309.642 127.911 309.49C128.442 309.099 129.149 308.582 129.452 308.367C129.604 308.266 129.92 308.039 130.147 307.862C130.362 307.685 130.703 307.433 130.905 307.294C131.094 307.155 131.915 306.512 132.723 305.855C134.062 304.77 134.34 304.53 134.997 303.949C135.11 303.848 135.439 303.571 135.704 303.331C137.914 301.437 141.299 298.143 143.218 296.01C143.812 295.366 144.469 294.647 144.671 294.432C144.885 294.205 145.252 293.776 145.517 293.46C145.77 293.145 146.123 292.754 146.3 292.577C146.477 292.413 146.628 292.211 146.628 292.122C146.628 292.034 146.704 291.921 146.793 291.87C146.957 291.756 148.523 289.876 148.523 289.775C148.523 289.712 149.053 289.068 149.445 288.664C149.558 288.525 149.659 288.386 149.659 288.348C149.659 288.298 149.937 287.907 150.291 287.465C151.226 286.278 154.711 281.204 154.711 281.04C154.711 281.002 154.964 280.611 155.28 280.144C155.595 279.69 155.848 279.299 155.848 279.273C155.848 279.235 157.275 276.762 157.49 276.433C157.566 276.332 157.679 276.093 157.755 275.891C157.831 275.701 157.944 275.55 158.008 275.55C158.071 275.55 158.121 275.461 158.121 275.36C158.121 275.247 158.184 275.095 158.26 275.007C158.437 274.805 158.917 273.884 160.306 271.069C161.708 268.254 162.15 267.308 162.845 265.667C162.933 265.452 163.122 265.01 163.274 264.695C163.413 264.379 163.703 263.672 163.931 263.117C164.145 262.562 164.411 261.943 164.512 261.754C164.613 261.552 164.689 261.337 164.689 261.262C164.689 261.199 164.764 260.959 164.865 260.744C164.966 260.517 165.067 260.227 165.105 260.088C165.143 259.949 165.295 259.52 165.446 259.141C165.598 258.763 165.749 258.333 165.787 258.195C165.825 258.056 165.926 257.765 166.027 257.538C166.128 257.324 166.204 257.033 166.204 256.894C166.204 256.743 166.255 256.604 166.318 256.554C166.381 256.516 166.482 256.301 166.52 256.074C166.57 255.859 166.772 255.153 166.975 254.534C167.341 253.386 167.593 252.54 167.909 251.379C168.01 251.025 168.174 250.457 168.288 250.091C168.389 249.738 168.477 249.334 168.477 249.195C168.477 249.069 168.553 248.715 168.654 248.4C169.26 246.418 170.119 241.445 170.561 237.179C170.826 234.642 170.826 227.17 170.561 224.948C170.296 222.84 170.018 220.972 169.841 220.265C169.766 219.95 169.665 219.445 169.614 219.129C169.564 218.814 169.463 218.309 169.374 217.994C169.286 217.678 169.122 217.085 169.02 216.668C168.793 215.823 167.707 212.465 167.467 211.872C166.848 210.357 166.053 208.489 165.952 208.287C165.901 208.174 165.636 207.656 165.371 207.139C165.118 206.621 164.802 206.015 164.689 205.813C164.575 205.599 164.234 204.993 163.943 204.463C163.64 203.92 163.35 203.44 163.287 203.402C163.211 203.365 163.097 203.201 163.034 203.062C162.971 202.91 162.807 202.607 162.668 202.405C162.529 202.191 162.377 201.938 162.327 201.837C162.276 201.736 162.188 201.585 162.137 201.522C161.784 201.08 161.152 200.196 161.152 200.133C161.152 200.083 161.077 199.969 161.001 199.881C160.761 199.616 160.622 199.427 160.218 198.833C160.016 198.543 159.801 198.303 159.75 198.303C159.687 198.303 159.637 198.227 159.637 198.139C159.624 197.824 155.772 193.507 153.966 191.803C153.461 191.311 152.779 190.68 152.463 190.377C152.16 190.086 151.882 189.846 151.857 189.846C151.832 189.846 151.579 189.619 151.276 189.342C150.973 189.051 150.581 188.736 150.392 188.61C150.19 188.496 150.038 188.357 150.038 188.307C150.038 188.256 149.975 188.206 149.912 188.206C149.836 188.206 149.647 188.067 149.483 187.89C149.318 187.713 149.154 187.575 149.104 187.575C149.053 187.575 148.687 187.322 148.295 187.007C147.904 186.691 147.437 186.325 147.26 186.186C147.083 186.047 146.881 185.934 146.793 185.934C146.717 185.934 146.628 185.883 146.603 185.82C146.553 185.681 144.507 184.293 144.355 184.293C144.305 184.293 144.191 184.217 144.115 184.129C144.039 184.028 143.724 183.826 143.408 183.662C143.092 183.498 142.84 183.321 142.84 183.258C142.84 183.207 142.776 183.157 142.701 183.157C142.625 183.157 142.158 182.917 141.665 182.627C141.16 182.336 140.364 181.895 139.872 181.642C139.392 181.39 138.874 181.125 138.735 181.062C138.596 180.986 138.204 180.797 137.851 180.632C137.51 180.468 137.055 180.254 136.841 180.153C136.26 179.85 136.133 179.799 135.388 179.496C135.009 179.345 134.39 179.08 134.024 178.916C133.658 178.752 133.279 178.613 133.178 178.613C133.077 178.613 132.749 178.512 132.458 178.373C131.801 178.095 131.233 177.881 130.463 177.666C130.147 177.565 129.553 177.376 129.137 177.237C128.72 177.098 127.949 176.871 127.432 176.732C126.914 176.593 125.941 176.341 125.285 176.164C124.615 175.988 123.971 175.836 123.832 175.836C123.706 175.836 123.1 175.722 122.506 175.596C120.915 175.23 117.934 174.7 117.517 174.7C117.315 174.7 116.318 174.586 115.307 174.46C111.632 173.968 104.395 173.817 99.0783 174.094ZM106.845 207.126C110.129 207.542 112.541 208.413 115.118 210.105C116.052 210.711 116.229 210.862 117.442 212.074C118.881 213.513 119.475 214.169 119.475 214.321C119.475 214.409 119.563 214.497 119.664 214.535C119.765 214.586 119.854 214.687 119.854 214.788C119.854 214.876 119.93 215.002 120.018 215.053C120.119 215.103 120.233 215.242 120.271 215.343C120.321 215.444 120.473 215.696 120.612 215.911C120.751 216.113 120.902 216.378 120.953 216.479C120.99 216.58 121.079 216.693 121.117 216.731C121.167 216.769 121.42 217.299 121.685 217.93C121.938 218.549 122.228 219.256 122.329 219.483C122.43 219.71 122.506 220.026 122.506 220.177C122.506 220.329 122.594 220.732 122.695 221.073C122.961 221.932 122.948 225.491 122.695 227.018C122.405 228.672 122.127 229.984 121.938 230.489C121.862 230.729 121.685 231.247 121.571 231.625C121.382 232.244 121.281 232.534 120.864 233.582C120.473 234.566 119.538 236.485 119.071 237.242C118.945 237.444 118.806 237.709 118.755 237.81C118.705 237.911 118.212 238.668 117.656 239.501C117.088 240.322 116.583 241.092 116.507 241.205C116.444 241.319 116.305 241.458 116.229 241.508C116.141 241.559 116.065 241.685 116.065 241.786C116.065 241.874 116.014 241.975 115.964 242.001C115.901 242.013 115.484 242.493 115.029 243.061C113.324 245.156 111.758 246.734 107.982 250.18C107.603 250.533 107.666 250.47 105.595 252.149C104.787 252.805 104.029 253.436 103.903 253.524C103.789 253.625 103.65 253.714 103.612 253.714C103.562 253.714 103.334 253.89 103.094 254.105C102.855 254.307 102.589 254.458 102.514 254.433C102.4 254.395 102.337 253.095 102.274 249.788C102.236 247.264 102.135 243.831 102.059 242.165C101.983 240.499 101.92 238.277 101.92 237.242C101.933 236.194 101.844 232.484 101.73 228.975C101.036 205.611 101.061 207.063 101.39 206.975C101.958 206.823 105.178 206.911 106.845 207.126Z" fill="white"/>
<path d="M202.792 202.683C200.316 206.545 198.321 209.751 198.372 209.802C198.447 209.878 205.722 213.942 212.706 217.804L213.679 218.347L217.884 211.998C222.974 204.311 222.62 204.867 222.393 204.728C221.307 204.059 207.351 195.653 207.338 195.653C207.326 195.665 205.28 198.821 202.792 202.683Z" fill="white"/>
<path d="M229.667 197.129C224.969 204.362 221.547 209.739 221.622 209.802C221.673 209.852 224.805 211.582 228.594 213.639C232.383 215.709 235.868 217.615 236.348 217.88L237.22 218.347L241.867 211.645C244.431 207.946 246.515 204.905 246.528 204.867C246.528 204.804 244.797 203.806 234.719 198.013C232.913 196.978 231.259 196.019 231.031 195.88L230.64 195.64L229.667 197.129Z" fill="white"/>
<path d="M404.459 196.713C402.957 197.054 401.605 197.735 400.165 198.846C395.013 202.86 390.34 210.812 386.702 221.78C384.555 228.268 383.558 233.291 383.558 237.532C383.57 241.773 384.404 244.992 386.222 247.794C388.572 251.379 392.108 253.613 396.743 254.421C399.584 254.913 403.436 254.888 405.975 254.357C409.196 253.689 412.163 251.808 414.348 249.069C415.788 247.264 416.407 246.216 418.529 242.064C419.59 240.006 420.474 238.315 420.512 238.315C420.663 238.315 422.141 241.534 422.583 242.808C423.391 245.143 423.719 246.974 423.808 249.485C423.858 251.341 423.833 251.795 423.606 252.893C421.812 261.59 410.004 265.427 383.052 266.058C380.931 266.109 353.057 266.121 321.105 266.083L263.009 266.008L261.557 265.679C260.761 265.503 259.561 265.175 258.904 264.96C253.322 263.092 247.285 257.917 242.499 250.874C241.072 248.753 240.162 247.213 237.119 241.66C233.052 234.251 232.281 232.938 230.564 230.489C227.987 226.816 225.525 225.945 222.835 227.738C221.458 228.659 220.574 229.694 217.833 233.645C213.754 239.514 212.491 241.597 211.935 243.414C211.013 246.406 212.441 256.73 215.787 271.246C218.578 283.388 219.551 288.79 220.271 296.288C220.599 299.734 220.725 305.843 220.523 308.998C220.258 313.353 219.5 319.096 218.667 323.299C218.553 323.842 218.49 324.309 218.515 324.346C218.541 324.372 218.894 324.536 219.286 324.7C219.942 325.003 220.006 325.003 220.119 324.801C220.725 323.64 223.327 317.265 224.426 314.236C226.598 308.241 227.684 304.05 228.354 299.216C228.707 296.742 228.796 290.242 228.531 287.351C227.747 278.958 226.586 272.356 223.163 256.932C222.153 252.351 222.14 252.704 223.277 251.669C224.211 250.811 224.843 250.508 225.689 250.508C227.571 250.495 228.808 252.01 232.963 259.469C238.116 268.734 239.91 271.347 243.736 275.184C245.795 277.229 247.02 278.226 249.205 279.576C252.64 281.722 255.76 282.833 259.473 283.249C261.367 283.451 390.125 283.363 392.651 283.148C406.43 281.987 413.843 279.601 419.602 274.477C423.202 271.271 425.21 268.115 427.319 262.36C430.413 253.941 431.663 249.473 432.068 245.509C432.282 243.326 432.08 238.492 431.6 234.907C429.883 221.793 424.288 210.509 414.778 201.017C412.277 198.505 410.901 197.559 408.88 196.915C407.756 196.561 405.558 196.46 404.459 196.713ZM402.502 217.615C404.725 218.347 407.415 219.887 410.067 221.906C413.085 224.204 415.877 226.98 416.912 228.722C417.379 229.517 417.405 229.606 417.405 230.653V231.751L416.937 231.941C413.25 233.481 408.311 234.326 404.775 234.023C398.233 233.468 392.689 231.146 391.236 228.344C390.845 227.586 390.769 225.958 391.072 224.633C391.262 223.749 392.083 221.894 392.613 221.136C393.005 220.556 394.116 219.42 394.747 218.94C395.834 218.107 397.501 217.388 398.776 217.186C399.698 217.047 401.391 217.236 402.502 217.615Z" fill="white"/>
<path d="M98.0679 206.394C97.7269 206.457 96.9313 206.558 96.3124 206.634C95.6936 206.709 94.7085 206.874 94.1023 207.012C93.5087 207.151 92.4731 207.391 91.8163 207.53C91.1596 207.681 90.225 207.921 89.7325 208.073C89.2525 208.237 88.419 208.489 87.9012 208.653C86.5498 209.07 85.2742 209.524 84.6428 209.802C84.3523 209.928 84.0492 210.042 83.986 210.042C83.9103 210.042 83.6198 210.143 83.3167 210.281C83.0262 210.408 82.3568 210.698 81.839 210.925C80.8413 211.367 78.8963 212.251 78.5301 212.452C78.4038 212.516 78.1891 212.617 78.0502 212.692C77.5702 212.932 76.6862 213.412 75.5622 214.03C75.2212 214.22 74.7539 214.472 74.5139 214.611C73.251 215.292 72.3543 215.81 71.6975 216.239C71.2934 216.517 70.9145 216.731 70.864 216.731C70.8135 216.731 70.5988 216.87 70.3967 217.047C70.1946 217.224 69.9673 217.362 69.8915 217.362C69.8157 217.362 69.6516 217.476 69.5253 217.615C69.399 217.754 69.2348 217.867 69.159 217.867C69.0832 217.867 68.8559 218.006 68.6538 218.183C68.4517 218.347 68.1865 218.524 68.0602 218.562C67.9213 218.612 67.8203 218.688 67.8203 218.751C67.8203 218.814 67.7192 218.89 67.5803 218.94C67.454 218.978 67.2141 219.13 67.0499 219.268C66.8857 219.407 66.2921 219.824 65.7364 220.202C65.1681 220.581 64.625 220.972 64.5366 221.086C64.4482 221.187 64.3345 221.275 64.2714 221.275C64.2082 221.275 64.0567 221.364 63.943 221.465C63.7031 221.667 62.2759 222.79 61.7581 223.181C60.7225 223.976 58.4997 225.769 58.2724 225.996C58.1208 226.147 57.843 226.4 57.6409 226.564C56.1632 227.801 54.7993 229.025 53.511 230.262C52.8796 230.881 52.3239 231.373 52.2607 231.373C52.2102 231.373 52.1597 231.411 52.1597 231.461C52.1597 231.524 51.1746 232.559 49.9748 233.784C48.7876 234.995 47.4363 236.422 46.9816 236.927C46.5269 237.431 46.0218 238.012 45.8449 238.201C45.6681 238.391 45.3019 238.82 45.024 239.148C44.7462 239.476 44.3168 239.981 44.0768 240.259C43.8368 240.536 43.5843 240.852 43.5085 240.94C43.4453 241.029 43.2938 241.205 43.1927 241.332C42.4223 242.215 41.0457 243.995 41.0457 244.108C41.0457 244.184 40.9952 244.247 40.9321 244.247C40.8815 244.247 40.6668 244.487 40.4648 244.777C40.2627 245.08 40.0606 245.345 40.0227 245.383C39.7196 245.636 34.3395 253.386 34.0616 253.966C34.0111 254.067 33.8595 254.32 33.7206 254.534C33.5817 254.736 33.4049 255.039 33.3291 255.191C33.2407 255.355 33.1397 255.481 33.0891 255.481C33.0386 255.481 32.9628 255.582 32.9123 255.695C32.8744 255.822 32.6976 256.15 32.5334 256.427C32.3566 256.705 32.2177 257.021 32.2051 257.134C32.2051 257.311 32.786 257.74 32.8618 257.614C32.8871 257.589 33.0134 257.362 33.1397 257.122C33.4049 256.642 33.7711 256.061 34.9331 254.282C35.8171 252.919 35.9434 252.729 36.1329 252.351C36.2213 252.199 36.3349 252.073 36.3981 252.073C36.4486 252.073 36.4991 252.01 36.4991 251.947C36.4991 251.795 37.0169 251.025 37.1685 250.962C37.219 250.937 37.2569 250.861 37.2569 250.785C37.2569 250.722 37.3579 250.533 37.4716 250.369C37.5979 250.217 37.7873 249.952 37.8884 249.801C37.9894 249.649 38.1536 249.448 38.242 249.347C38.3178 249.258 38.3935 249.157 38.3935 249.107C38.3935 249.044 38.8735 248.375 40.5911 246.065C41.0205 245.497 41.4499 244.904 41.5509 244.752C41.6519 244.588 41.8414 244.373 41.9677 244.26C42.0813 244.159 42.1824 243.995 42.1824 243.894C42.1824 243.806 42.2708 243.705 42.3718 243.667C42.4729 243.616 42.5613 243.515 42.5613 243.414C42.5613 243.326 42.637 243.2 42.7255 243.149C42.8012 243.099 43.3317 242.48 43.8874 241.786C44.4304 241.092 44.9609 240.435 45.0493 240.334C45.1377 240.233 45.4534 239.867 45.7565 239.514C46.047 239.173 46.388 238.795 46.5143 238.668C46.628 238.542 46.729 238.403 46.729 238.34C46.729 238.29 46.83 238.151 46.9563 238.05C47.07 237.936 47.7646 237.204 48.4971 236.422C51.0104 233.708 51.3388 233.354 52.8543 231.878C55.2034 229.568 55.7338 229.076 57.8303 227.233C58.0071 227.069 58.2976 226.816 58.4744 226.652C58.7902 226.375 60.7351 224.784 61.4171 224.267C61.6192 224.115 61.8844 223.888 62.0233 223.762C62.1496 223.648 62.3012 223.547 62.3391 223.547C62.3896 223.547 62.6043 223.396 62.8316 223.194C63.5515 222.588 63.7788 222.411 63.8546 222.411C63.9051 222.411 64.1198 222.26 64.3472 222.058C65.0165 221.502 65.2186 221.351 65.5849 221.162C65.7743 221.061 65.9258 220.934 65.9258 220.897C65.9258 220.846 66.1027 220.733 66.3047 220.644C66.5194 220.556 66.6836 220.455 66.6836 220.404C66.6836 220.366 66.9741 220.152 67.3277 219.95C67.6687 219.735 68.1108 219.445 68.3002 219.294C68.4896 219.13 68.7043 219.003 68.7801 219.003C68.8559 219.003 69.0201 218.89 69.1464 218.751C69.2727 218.612 69.4368 218.498 69.5126 218.498C69.5884 218.498 69.8157 218.36 70.0178 218.183C70.2199 218.006 70.4346 217.867 70.4851 217.867C70.5356 217.867 70.9145 217.653 71.3186 217.375C71.7228 217.11 72.3922 216.719 72.7963 216.492C73.2131 216.277 73.6046 216.05 73.6804 215.987C73.7561 215.924 74.2487 215.646 74.7665 215.368C75.2843 215.103 75.9663 214.737 76.282 214.56C76.8251 214.27 77.0398 214.156 77.7092 213.803C77.8607 213.727 78.1638 213.576 78.3659 213.487C78.5806 213.387 78.8458 213.26 78.9721 213.185C79.4015 212.957 79.6415 212.844 80.2603 212.566C80.614 212.415 81.1823 212.15 81.5233 211.998C81.8769 211.834 82.4705 211.582 82.8494 211.43C83.2283 211.279 83.8471 211.014 84.2134 210.849C84.5796 210.685 84.9585 210.547 85.0595 210.547C85.1606 210.547 85.4637 210.433 85.7163 210.294C85.9815 210.155 86.2846 210.042 86.3983 210.042C86.5119 210.042 86.8782 209.941 87.2192 209.802C90.0608 208.729 95.782 207.416 98.6741 207.189L99.6466 207.113V206.684C99.6466 206.268 99.634 206.255 99.1793 206.268C98.9141 206.28 98.4216 206.331 98.0679 206.394Z" fill="white"/>
<path d="M464.955 213.664C464.197 213.753 462.669 214.119 462.038 214.346C461.431 214.573 461.368 214.649 460.623 215.886C458.438 219.533 457.541 223.118 457.832 227.094C457.92 228.457 458.274 230.477 458.438 230.653C458.489 230.704 458.868 230.628 459.284 230.489C462.694 229.315 466.963 229.379 470.512 230.641C471.674 231.057 473.796 232.143 475.059 232.976C481.79 237.406 488.357 246.885 492.588 258.283C493.776 261.476 495.177 266.02 495.013 266.184C494.748 266.449 489.684 267.598 487.183 267.964C479.327 269.1 470.916 269.1 463.086 267.964C455.243 266.828 449.155 264.543 445.872 261.502L445.013 260.694L445 257.298C445 254.219 445.026 253.777 445.291 252.59C445.455 251.871 445.556 251.265 445.531 251.24C445.506 251.215 445.228 251.151 444.912 251.114C444.243 251.025 444.432 250.684 443.333 253.903C441.553 259.116 440.782 263.521 440.934 267.598C441.136 273.013 442.55 276.572 445.619 279.425C447.754 281.406 450.292 282.681 453.967 283.577C457.529 284.448 461.987 284.764 470.613 284.764C482.737 284.764 488.774 283.868 493.801 281.293C498.853 278.718 502.035 274.389 503.147 268.608C503.5 266.727 503.664 265.036 503.677 262.928C503.69 260.896 503.664 260.782 502.856 257.563C501.505 252.262 500.166 247.289 499.484 245.068C495.821 233.216 490.921 224.873 484.468 219.508C484.013 219.142 483.015 218.41 482.245 217.905C477.761 214.964 472.874 213.538 467.355 213.588C466.243 213.601 465.17 213.639 464.955 213.664Z" fill="white"/>
<path d="M315.068 297.222C315.03 297.285 314.058 300.213 312.908 303.76C311.746 307.294 310.256 311.813 309.612 313.782C308.955 315.763 308.438 317.392 308.463 317.417C308.488 317.442 308.816 317.316 309.183 317.127L309.865 316.798L310.534 314.691C312.744 307.812 315.005 300.857 315.055 300.806C315.081 300.781 315.119 300.781 315.144 300.806C315.169 300.832 316.041 303.331 317.063 306.347C319.968 314.829 319.69 314.11 320.044 314.072C320.208 314.06 321.105 313.996 322.014 313.946C322.936 313.883 323.719 313.82 323.744 313.782C323.782 313.757 323.391 312.532 322.873 311.081C319.779 302.22 318.213 297.79 318.112 297.474L317.985 297.133H316.558C315.763 297.133 315.093 297.171 315.068 297.222Z" fill="white"/>
<path d="M247.538 297.752C247.538 297.954 247.664 297.992 248.397 298.042C249.95 298.156 250.999 299.001 251.466 300.541C251.706 301.337 251.706 301.74 251.681 317.455L251.643 333.548L251.352 334.255C250.771 335.694 249.748 336.501 248.334 336.615C247.765 336.653 247.538 336.729 247.538 336.855C247.538 337.006 249.079 337.032 258.374 336.981C268.693 336.931 269.261 336.918 270.524 336.678C277.912 335.214 283.608 329.585 285.187 322.163C285.528 320.56 285.654 317.215 285.427 315.473C284.846 310.753 282.825 306.714 279.415 303.444C275.816 299.986 270.877 298.03 264.777 297.638C263.729 297.575 259.435 297.512 255.217 297.512C247.803 297.512 247.538 297.525 247.538 297.752ZM266.924 299.153C270.246 299.86 272.81 301.147 275.058 303.255C278.139 306.171 280.034 310.185 280.703 315.233C280.956 317.127 280.88 320.976 280.564 322.693C279.92 326.24 278.165 329.559 275.689 331.92C273.075 334.406 270.89 335.315 266.495 335.757C263.843 336.022 259.902 335.858 258.437 335.441C256.96 335.012 256.126 333.901 255.874 332.058C255.798 331.415 255.747 325.558 255.747 315.246V299.431L256.101 299.355C256.391 299.292 258.021 299.077 259.789 298.85C260.029 298.825 261.456 298.812 262.946 298.837C265.106 298.875 265.914 298.938 266.924 299.153Z" fill="white"/>
<path d="M365.245 297.752C365.245 297.954 365.371 297.992 366.104 298.042C366.735 298.093 367.152 298.206 367.632 298.471C368.453 298.913 368.807 299.317 369.186 300.251L369.476 300.983L369.514 312.949L369.552 324.914L370.019 324.826C370.272 324.776 371.029 324.599 371.686 324.435C372.343 324.258 373.012 324.094 373.176 324.056L373.454 323.993V311.384V298.774H378.86C384.745 298.774 385.238 298.825 386.273 299.494C386.879 299.885 387.258 300.289 387.7 301.034C388.079 301.677 388.483 302.839 388.483 303.28C388.483 303.457 388.559 303.571 388.673 303.571C388.837 303.571 388.862 303.154 388.862 300.541V297.512H377.054C365.611 297.512 365.245 297.525 365.245 297.752Z" fill="white"/>
<path d="M405.912 297.752C405.912 297.954 406.026 297.992 406.771 298.042C408.261 298.131 409.486 298.964 409.916 300.201C410.13 300.819 410.143 301.753 410.143 317.278V333.699L409.701 334.57C409.019 335.908 407.895 336.64 406.493 336.64C406.064 336.64 405.912 336.691 405.912 336.83C405.912 336.994 406.708 337.019 412.29 337.019C417.594 337.019 418.668 336.994 418.668 336.842C418.668 336.729 418.428 336.653 417.872 336.615C416.142 336.476 414.841 335.302 414.424 333.497C414.285 332.929 414.248 329.484 414.248 315.776V298.774H419.552C425.109 298.774 425.715 298.825 426.751 299.342C427.938 299.948 428.923 301.45 429.226 303.091C429.264 303.381 429.378 303.571 429.479 303.571C429.63 303.571 429.656 303.04 429.656 300.541V297.512H417.784C406.228 297.512 405.912 297.525 405.912 297.752Z" fill="white"/>
<path d="M453.967 299.809C450.949 309.036 448.537 316.395 448.284 317.139C448.12 317.619 446.895 321.33 445.569 325.369C443.018 333.144 442.5 334.457 441.464 335.605C440.82 336.325 439.683 336.956 438.799 337.095C438.446 337.145 438.244 337.233 438.244 337.347C438.244 337.499 439.014 337.524 442.853 337.524C446.87 337.524 447.463 337.499 447.463 337.334C447.463 337.208 447.337 337.145 447.046 337.145C446.352 337.145 445.392 336.792 445.038 336.426C444.584 335.921 444.445 335.63 444.356 334.848C444.23 333.788 444.546 332.5 446.225 327.363C447.059 324.788 447.829 322.428 447.918 322.087L448.107 321.494H454.965H461.836L462.025 321.961C462.619 323.501 465.89 333.661 465.965 334.217C466.079 335.1 465.852 336.022 465.41 336.438C465.006 336.817 463.743 337.145 462.593 337.145C462.025 337.145 461.861 337.183 461.861 337.334C461.861 337.499 462.656 337.524 468.302 337.524C473.707 337.524 474.743 337.499 474.743 337.347C474.743 337.233 474.528 337.145 474.162 337.082C472.684 336.867 471.99 336.4 471.106 335.062C470.386 333.964 469.792 332.5 468.062 327.552C465.612 320.522 462.404 311.358 460.03 304.58L457.617 297.701L456.152 297.664L454.687 297.626L453.967 299.809ZM457.984 310.689C459.752 315.801 461.154 320.004 461.128 320.042C461.027 320.131 448.6 320.118 448.6 320.03C448.6 319.979 449.219 318.035 449.976 315.7C450.734 313.365 452.086 309.213 452.957 306.474C454.586 301.412 454.649 301.248 454.738 301.337C454.763 301.362 456.228 305.565 457.984 310.689Z" fill="white"/>
<path d="M392.019 311.018C391.868 311.22 391.779 311.396 391.817 311.396C391.843 311.396 391.994 311.22 392.146 311.018C392.297 310.803 392.386 310.639 392.348 310.639C392.323 310.639 392.171 310.803 392.019 311.018Z" fill="white"/>
<path d="M390.757 312.684C389.506 314.236 387.22 316.508 385.579 317.821C380.502 321.898 374.629 324.447 367.897 325.495C365.662 325.848 360.459 325.811 358.236 325.432C356.165 325.078 354.725 324.687 352.805 323.955C349.799 322.807 345.278 320.661 343.08 319.323C338.483 316.521 333.267 314.817 327.685 314.287C325.462 314.085 321.231 314.198 319.021 314.539C312.908 315.473 307.427 317.758 302.451 321.431C300.001 323.248 296.844 326.442 295.252 328.701L294.874 329.256L295.227 328.865C295.429 328.651 296.099 327.893 296.717 327.199C299.749 323.728 304.068 320.585 308.602 318.54C313.868 316.167 319.918 315.031 325.159 315.423C329.036 315.713 331.411 316.281 334.934 317.745C337.372 318.768 340.946 320.484 342.449 321.368C346.528 323.766 349.105 324.889 352.805 325.848C364.184 328.84 376.7 325.975 385.642 318.326C387.018 317.152 389.203 314.905 390.239 313.605C391.022 312.621 391.818 311.522 391.729 311.522C391.717 311.522 391.275 312.053 390.757 312.684Z" fill="white"/>
<path d="M427.597 313.656C427.206 315.132 426.296 316.167 425.122 316.483C424.894 316.533 424.856 316.647 424.856 317.303V318.061L425.286 318.136C426.321 318.338 427.357 319.588 427.66 321.014C427.749 321.456 427.875 321.746 427.976 321.746C428.102 321.746 428.14 320.863 428.14 317.265C428.14 313.706 428.102 312.785 427.976 312.785C427.888 312.785 427.723 313.151 427.597 313.656Z" fill="white"/>
<path d="M320.511 315.776C320.334 315.827 320.322 315.89 320.423 316.167C320.499 316.357 321.004 317.783 321.547 319.348C322.09 320.913 323.227 324.17 324.073 326.606C326.131 332.488 326.346 333.207 326.346 334.229C326.346 335.264 326.081 335.845 325.449 336.161C324.932 336.426 323.795 336.64 322.911 336.64C322.456 336.64 322.305 336.691 322.305 336.83C322.305 336.994 323.1 337.019 328.683 337.019C334 337.019 335.06 336.994 335.06 336.842C335.06 336.729 334.783 336.615 334.277 336.514C333.848 336.438 333.28 336.262 333.027 336.123C331.726 335.466 330.691 333.472 328.784 327.994C328.038 325.836 326.775 322.201 325.967 319.916L324.515 315.751L322.62 315.738C321.572 315.726 320.625 315.738 320.511 315.776Z" fill="white"/>
<path d="M103.436 321.936C103.196 322.024 102.791 322.138 102.539 322.175C102.109 322.251 102.072 322.289 101.996 322.844C101.958 323.16 101.92 323.791 101.92 324.245C101.92 325.71 101.377 328.512 100.96 329.155C100.72 329.547 100.594 329.521 100.316 329.029C99.9877 328.474 99.6846 327.06 99.4446 324.965C99.331 323.993 99.2173 323.173 99.2047 323.147C99.1668 323.109 97.0955 323.501 97.045 323.551C97.0324 323.564 96.9819 325.104 96.9314 326.984C96.8682 329.42 96.8808 330.556 96.9945 330.96C97.0703 331.276 97.184 331.73 97.2345 331.97C97.3229 332.361 97.4365 332.639 97.7775 333.232C97.8281 333.333 97.9165 333.51 97.967 333.611C98.1564 334.027 99.1289 334.999 99.3436 334.999C99.432 334.999 99.6593 335.088 99.8488 335.189C100.329 335.441 100.834 335.429 101.592 335.163C102.867 334.696 103.979 332.942 104.244 330.96C104.433 329.622 104.231 321.746 104.017 321.759C103.941 321.759 103.676 321.835 103.436 321.936Z" fill="white"/>
<path d="M373.063 325.596C373.012 325.646 372.015 325.912 370.019 326.429L369.564 326.543L369.514 329.988C369.463 333.232 369.451 333.459 369.16 334.179C368.592 335.618 367.203 336.64 365.788 336.64C365.384 336.64 365.245 336.691 365.245 336.83C365.245 336.994 366.028 337.019 371.56 337.019C376.801 337.019 377.875 336.994 377.875 336.842C377.875 336.729 377.635 336.653 377.079 336.615C376.119 336.539 375.462 336.211 374.768 335.479C373.606 334.28 373.454 333.523 373.454 328.84C373.454 326.177 373.416 325.533 373.29 325.533C373.189 325.533 373.088 325.558 373.063 325.596Z" fill="white"/>
<path d="M294.684 329.471C294.495 329.723 294.368 329.951 294.431 329.951C294.469 329.951 294.583 329.812 294.697 329.635C294.911 329.307 294.899 329.193 294.684 329.471Z" fill="white"/>
<path d="M301.908 334.974C301.163 335.82 300.544 336.224 299.559 336.476C299.054 336.602 298.688 336.766 298.688 336.855C298.688 336.981 299.635 337.019 303.297 337.019C307.313 337.019 307.907 336.994 307.907 336.83C307.907 336.703 307.781 336.64 307.49 336.64C306.808 336.64 305.747 336.262 305.369 335.883C305.166 335.694 304.952 335.277 304.863 334.949L304.724 334.368L303.562 334.381L302.413 334.394L301.908 334.974Z" fill="white"/>
</svg>
