<?xml version="1.0" standalone="no"?>
<!DOCTYPE svg PUBLIC "-//W3C//DTD SVG 20010904//EN"
 "http://www.w3.org/TR/2001/REC-SVG-20010904/DTD/svg10.dtd">
<svg version="1.0" xmlns="http://www.w3.org/2000/svg"
 width="4054.000000pt" height="1537.000000pt" viewBox="0 0 4054.000000 1537.000000"
 preserveAspectRatio="xMidYMid meet">

<g transform="translate(0.000000,1537.000000) scale(0.100000,-0.100000)"
fill="#000000" stroke="none">
<path d="M31042 14317 c-188 -299 -342 -547 -342 -550 0 -6 15 -16 385 -240
751 -456 856 -518 865 -515 5 2 165 251 354 553 263 419 342 553 333 561 -18
17 -1219 726 -1238 731 -12 3 -104 -136 -357 -540z"/>
<path d="M7845 13778 c-88 -5 -234 -17 -325 -28 -91 -11 -180 -20 -198 -20
-18 0 -99 -11 -180 -25 -81 -14 -201 -34 -267 -45 -66 -12 -169 -31 -230 -45
-60 -13 -155 -33 -210 -45 -55 -12 -138 -32 -185 -45 -47 -13 -120 -33 -162
-44 -212 -57 -283 -78 -428 -127 -25 -9 -65 -22 -90 -29 -25 -7 -83 -28 -130
-45 -47 -17 -98 -35 -115 -39 -16 -4 -49 -18 -72 -29 -23 -12 -49 -22 -57 -22
-9 0 -35 -8 -58 -19 -52 -23 -145 -62 -213 -89 -136 -54 -490 -215 -560 -255
-11 -6 -56 -29 -100 -52 -44 -23 -89 -46 -100 -52 -11 -6 -31 -16 -45 -22 -14
-6 -43 -22 -65 -36 -22 -14 -53 -32 -70 -40 -16 -9 -52 -29 -80 -45 -27 -16
-69 -39 -92 -51 -23 -11 -47 -27 -54 -35 -6 -8 -17 -14 -24 -14 -6 0 -22 -9
-35 -20 -13 -11 -27 -20 -31 -20 -4 0 -37 -20 -73 -45 -37 -25 -68 -45 -71
-45 -3 0 -34 -20 -69 -45 -36 -25 -70 -45 -75 -45 -6 0 -11 -4 -11 -8 0 -5
-12 -15 -27 -23 -16 -8 -30 -17 -33 -20 -3 -3 -36 -28 -75 -55 -38 -26 -74
-52 -80 -56 -20 -16 -82 -63 -110 -83 -15 -11 -51 -39 -81 -62 -29 -24 -55
-43 -59 -43 -3 0 -16 -11 -29 -25 -13 -14 -26 -25 -30 -25 -3 0 -14 -8 -25
-17 -10 -10 -35 -31 -56 -48 -21 -16 -47 -38 -57 -47 -10 -10 -20 -18 -22 -18
-2 0 -24 -19 -49 -42 -25 -24 -78 -72 -118 -108 -136 -122 -380 -374 -459
-475 -17 -22 -35 -42 -39 -45 -11 -8 -177 -219 -208 -264 -15 -22 -34 -45 -40
-49 -7 -4 -13 -15 -13 -22 0 -8 -4 -15 -9 -15 -10 0 -34 -38 -47 -72 -3 -10
-10 -18 -15 -18 -5 0 -14 -10 -19 -22 -11 -26 -32 -60 -41 -68 -17 -15 -145
-245 -213 -385 -93 -191 -96 -198 -136 -300 -17 -44 -38 -95 -46 -113 -8 -18
-14 -39 -14 -47 0 -8 -6 -29 -14 -47 -8 -18 -22 -60 -31 -93 -9 -33 -23 -80
-31 -105 -8 -25 -14 -54 -14 -64 0 -11 -6 -42 -14 -70 -8 -28 -22 -94 -30
-146 -9 -52 -21 -126 -27 -165 -6 -38 -14 -196 -16 -350 -6 -334 6 -461 74
-785 22 -105 67 -263 90 -317 7 -17 13 -36 13 -42 0 -6 6 -25 14 -43 8 -18 30
-71 49 -118 36 -86 113 -240 147 -295 10 -16 28 -46 39 -67 11 -20 39 -63 63
-96 24 -33 50 -70 58 -82 8 -13 23 -30 33 -39 9 -8 17 -19 17 -24 0 -16 224
-247 240 -247 5 0 10 -4 10 -8 0 -5 24 -27 52 -50 29 -23 60 -48 68 -55 21
-19 208 -140 245 -159 158 -80 233 -115 293 -136 82 -30 101 -37 160 -59 34
-12 73 -23 86 -23 13 0 43 -7 67 -16 24 -9 67 -19 94 -23 28 -5 97 -17 155
-29 158 -30 327 -44 614 -49 512 -10 854 37 1376 187 160 46 219 64 278 86 34
13 68 24 76 24 7 0 35 8 62 19 27 10 65 24 84 30 145 51 285 102 340 124 36
14 81 31 100 37 19 7 60 23 90 35 82 34 160 65 210 85 39 16 115 47 225 95 17
7 55 24 86 39 31 14 59 26 63 26 3 0 50 20 104 45 53 25 115 54 137 64 103 48
242 114 260 124 11 6 34 17 50 24 17 8 39 19 50 25 11 7 56 30 100 53 44 23
98 52 120 65 22 13 61 34 88 48 26 14 47 29 47 33 0 5 5 9 11 9 7 0 34 13 60
30 l49 30 0 -278 c0 -152 -6 -551 -15 -887 -8 -335 -22 -929 -30 -1320 -16
-747 -40 -1869 -53 -2413 l-7 -322 35 6 c19 3 56 10 81 15 l46 10 6 267 c3
147 8 278 10 292 3 14 10 72 17 130 20 190 55 310 91 310 15 0 24 -14 47 -71
19 -48 51 -272 57 -405 4 -72 7 -206 7 -298 0 -91 0 -166 1 -166 1 0 35 11 75
25 41 14 84 25 95 26 24 1 109 37 90 38 -7 1 -28 -7 -48 -16 -19 -9 -37 -15
-39 -12 -5 5 -28 718 -51 1586 -8 310 -22 814 -30 1120 -8 307 -22 817 -30
1133 -8 316 -20 744 -26 950 -8 286 -8 375 1 378 7 3 27 17 45 33 18 16 35 29
39 29 3 0 14 7 24 16 9 8 62 51 117 95 55 43 107 85 115 91 8 7 42 36 75 63
256 212 549 510 700 713 6 7 18 22 28 33 9 10 17 23 17 29 0 5 6 13 13 17 6 4
17 15 22 25 6 9 32 49 60 90 53 78 68 101 85 133 6 11 19 34 30 50 26 41 150
290 150 303 0 6 6 23 14 39 59 117 119 355 142 563 18 163 17 265 -1 381 -24
151 -49 227 -122 367 -71 138 -73 142 -84 142 -5 0 -9 5 -9 10 0 16 -92 134
-178 228 -67 74 -211 202 -226 202 -3 0 -16 9 -29 20 -12 11 -52 35 -87 53
-36 19 -78 41 -95 50 -92 47 -260 98 -425 127 -91 16 -158 20 -322 20 -206 0
-207 0 -211 -22 -2 -13 -4 42 -5 121 -1 79 -4 147 -7 150 -2 4 -9 257 -15 562
-13 600 -22 741 -32 469 -4 -91 -11 -282 -17 -425 -19 -460 -33 -872 -41
-1215 -4 -184 -15 -585 -24 -890 -28 -969 -47 -1720 -46 -1880 0 -223 -21
-841 -30 -866 -5 -12 -41 -37 -92 -62 -45 -23 -94 -49 -108 -57 -14 -8 -54
-28 -90 -44 -36 -17 -76 -37 -90 -44 -14 -8 -47 -24 -75 -36 -27 -13 -72 -33
-100 -46 -63 -30 -139 -64 -190 -86 -50 -22 -148 -67 -198 -91 -22 -10 -44
-18 -50 -18 -7 0 -34 -11 -62 -24 -27 -13 -75 -34 -105 -47 -30 -12 -79 -32
-108 -45 -29 -13 -58 -24 -65 -24 -7 0 -17 -4 -22 -9 -6 -5 -35 -18 -65 -29
-30 -11 -84 -32 -120 -46 -178 -69 -184 -71 -430 -159 -181 -65 -253 -90 -375
-129 -76 -24 -108 -34 -305 -92 -47 -14 -123 -35 -170 -47 -47 -11 -117 -29
-157 -40 -39 -10 -80 -19 -90 -19 -10 0 -67 -11 -128 -24 -212 -48 -331 -59
-663 -64 -190 -2 -351 1 -410 7 -329 37 -393 48 -607 103 -76 19 -228 67 -325
103 -93 34 -292 139 -401 212 -63 41 -116 78 -119 82 -3 3 -23 19 -45 35 -22
17 -50 40 -62 53 -12 13 -26 23 -30 24 -4 0 -24 20 -43 44 -19 24 -41 44 -47
44 -7 1 -13 6 -13 13 0 7 -11 22 -23 33 -27 23 -95 101 -117 135 -8 12 -19 28
-25 34 -23 27 -55 76 -55 85 0 5 -4 11 -8 13 -9 3 -112 185 -112 197 0 4 -12
32 -28 62 -15 30 -36 81 -47 114 -10 33 -23 65 -27 70 -4 6 -11 29 -17 50 -5
22 -19 72 -30 110 -25 84 -54 231 -75 377 -18 123 -22 548 -6 663 6 39 12 93
15 120 6 54 28 171 51 275 33 148 134 463 155 485 5 5 9 15 9 22 0 17 110 255
140 303 5 8 33 58 61 110 28 52 55 97 60 98 5 2 9 10 9 17 0 8 6 20 13 27 11
12 120 170 142 206 6 10 16 21 23 25 6 4 12 15 12 22 0 8 5 15 10 15 6 0 15
11 20 25 5 14 14 25 20 25 5 0 10 7 10 15 0 9 7 18 15 21 8 4 15 11 15 16 0
10 37 54 175 213 134 154 277 298 490 494 22 20 73 63 113 95 39 32 72 62 72
67 0 5 4 9 10 9 5 0 20 9 32 19 36 31 64 54 95 78 15 12 58 46 94 75 36 29 78
62 93 73 70 51 121 91 124 98 2 4 9 7 17 7 7 0 19 7 26 16 7 9 43 36 79 60 93
63 113 77 128 91 7 7 17 13 21 13 4 0 21 11 37 25 16 14 35 25 42 25 6 0 12 4
12 9 0 5 15 16 34 25 18 8 39 22 46 31 7 8 16 15 21 15 4 0 37 20 73 45 37 25
69 45 72 45 3 0 20 11 38 25 18 14 37 25 43 25 5 0 18 8 29 18 23 19 65 45
111 67 17 8 34 19 38 25 4 6 21 17 38 26 35 17 60 30 157 87 72 43 86 50 148
84 23 13 63 35 90 49 26 15 74 40 107 56 33 15 69 34 80 40 19 11 60 32 98 50
9 4 25 12 35 17 9 5 62 31 117 57 55 25 116 55 136 65 20 11 42 19 48 19 6 0
29 11 51 25 22 14 44 25 50 25 10 0 49 16 155 65 28 12 66 28 85 35 19 7 39
17 44 22 6 4 19 8 31 8 12 0 25 4 31 10 10 10 69 33 284 110 19 7 60 24 91 36
31 13 64 24 73 24 9 0 30 7 45 15 16 8 46 19 67 24 22 5 64 18 94 29 158 56
581 173 800 220 203 45 576 112 617 112 17 0 94 9 170 19 413 57 1024 57 1483
0 276 -35 636 -110 815 -171 33 -11 79 -24 102 -29 24 -5 56 -15 72 -24 17 -8
38 -15 48 -15 10 0 41 -12 68 -25 28 -14 56 -25 62 -25 12 0 41 -12 163 -67
30 -13 73 -32 95 -42 100 -45 323 -158 351 -178 17 -13 34 -23 39 -23 6 0 76
-42 154 -92 14 -10 42 -26 62 -37 19 -11 41 -27 48 -35 8 -9 19 -16 26 -16 6
0 20 -9 30 -20 10 -11 24 -20 32 -20 7 0 13 -3 13 -7 0 -5 21 -21 45 -38 25
-16 45 -33 45 -37 0 -5 5 -8 11 -8 11 0 74 -50 259 -204 107 -90 370 -350 445
-441 28 -33 55 -64 61 -70 25 -23 194 -244 194 -253 0 -5 7 -12 15 -16 8 -3
15 -12 15 -20 0 -8 3 -16 8 -18 11 -5 52 -66 52 -78 0 -5 4 -10 8 -10 5 0 14
-10 21 -22 14 -27 27 -48 63 -104 14 -22 39 -64 54 -92 15 -29 32 -52 36 -52
4 0 8 -9 8 -20 0 -11 4 -20 8 -20 4 0 20 -26 35 -57 15 -32 32 -65 37 -73 5
-8 20 -41 34 -72 14 -32 38 -84 52 -115 27 -61 30 -70 59 -143 10 -25 24 -59
31 -77 8 -17 14 -36 14 -42 0 -6 6 -25 14 -43 8 -18 22 -60 32 -93 9 -33 23
-78 30 -100 68 -219 123 -536 150 -858 33 -401 -1 -919 -92 -1382 -30 -153
-75 -354 -94 -420 -5 -16 -16 -57 -25 -90 -35 -129 -64 -224 -110 -365 -46
-141 -56 -170 -72 -207 -7 -17 -13 -36 -13 -42 0 -6 -7 -27 -16 -48 -33 -76
-42 -99 -59 -143 -10 -25 -25 -63 -35 -85 -10 -22 -28 -65 -40 -95 -12 -30
-26 -59 -31 -64 -5 -6 -9 -16 -9 -23 0 -7 -16 -48 -36 -90 -20 -43 -47 -103
-61 -133 -13 -30 -28 -62 -33 -70 -9 -13 -17 -31 -51 -105 -5 -11 -13 -27 -18
-35 -5 -8 -18 -33 -29 -55 -11 -22 -36 -69 -55 -105 -19 -36 -54 -101 -78
-145 -23 -44 -45 -82 -48 -85 -3 -3 -15 -23 -26 -45 -11 -22 -22 -42 -25 -45
-6 -5 -177 -288 -198 -326 -7 -13 -17 -24 -21 -24 -5 0 -12 -11 -15 -25 -4
-14 -11 -25 -16 -25 -6 0 -10 -7 -10 -15 0 -9 -6 -18 -14 -21 -8 -3 -17 -16
-20 -30 -4 -13 -11 -24 -16 -24 -6 0 -10 -7 -10 -15 0 -9 -7 -18 -15 -21 -8
-4 -15 -10 -15 -15 0 -9 -36 -65 -50 -79 -3 -3 -18 -24 -33 -48 -15 -23 -32
-42 -37 -42 -6 0 -10 -7 -10 -15 0 -9 -7 -18 -15 -21 -8 -4 -15 -11 -15 -16 0
-10 -132 -185 -165 -219 -8 -9 -15 -19 -15 -23 0 -4 -13 -20 -30 -36 -16 -16
-30 -32 -30 -36 0 -4 -15 -23 -32 -43 -18 -20 -51 -59 -73 -86 -35 -42 -129
-149 -160 -181 -5 -6 -48 -53 -95 -104 -86 -96 -407 -420 -415 -420 -2 0 -26
-21 -53 -48 -59 -57 -108 -100 -187 -167 -59 -50 -96 -81 -139 -120 -13 -11
-40 -33 -60 -50 -21 -16 -44 -36 -51 -42 -8 -7 -17 -13 -21 -13 -4 0 -17 -11
-30 -25 -13 -14 -25 -25 -28 -25 -6 0 -25 -15 -81 -63 -18 -15 -35 -27 -39
-27 -3 0 -14 -7 -23 -15 -47 -38 -155 -115 -163 -115 -4 0 -10 -3 -12 -8 -4
-10 -106 -82 -117 -82 -5 0 -15 -7 -22 -16 -7 -9 -22 -20 -34 -25 -17 -8 -70
-43 -100 -66 -5 -5 -43 -29 -84 -53 -40 -25 -90 -55 -110 -67 -20 -12 -43 -25
-51 -29 -8 -4 -26 -15 -40 -24 -14 -10 -56 -34 -95 -55 -38 -21 -89 -49 -112
-62 -167 -91 -197 -107 -298 -153 -27 -13 -63 -30 -80 -38 -16 -9 -37 -19 -45
-22 -8 -4 -35 -16 -60 -27 -25 -11 -79 -35 -120 -52 -41 -18 -87 -39 -102 -47
-14 -8 -31 -14 -36 -14 -6 0 -32 -10 -59 -21 -85 -38 -32 -30 87 12 63 22 129
44 145 48 17 4 49 18 72 29 23 12 48 22 55 22 7 0 30 9 51 20 20 11 42 20 48
20 5 0 36 11 67 26 31 14 71 31 87 38 74 34 152 69 170 79 11 6 52 26 90 44
39 19 79 39 90 45 11 7 39 22 63 35 97 53 129 71 162 91 19 12 46 27 60 34 14
7 38 21 55 33 33 22 35 23 132 79 37 22 77 48 87 58 11 10 25 18 31 18 7 0 20
9 30 20 10 11 23 20 30 20 6 0 22 11 35 25 13 14 28 25 33 25 5 0 21 9 35 21
42 31 98 72 122 89 12 8 37 26 55 40 17 14 44 34 60 45 15 11 80 62 144 114
106 86 128 105 180 151 9 8 35 30 56 49 175 150 443 411 595 580 47 51 99 108
115 125 17 18 46 52 67 77 20 25 48 56 62 70 14 13 26 29 26 36 0 7 6 16 13
20 13 9 137 158 137 166 0 5 42 56 73 88 9 11 17 22 17 25 0 4 22 35 50 70 74
94 350 496 350 509 0 3 20 34 45 71 25 36 45 67 45 69 0 3 113 199 130 225 6
8 15 27 21 43 6 15 15 27 20 27 5 0 9 7 9 15 0 9 5 21 11 28 14 16 52 89 162
312 111 223 146 298 201 428 7 17 22 52 34 77 11 25 34 81 52 125 17 44 38 93
46 108 8 16 14 33 14 39 0 5 6 24 14 41 8 18 16 41 19 52 3 11 15 45 27 75 12
30 24 64 27 75 3 11 11 34 19 52 8 17 14 40 14 51 0 12 4 23 9 27 5 3 13 20
16 38 4 17 20 73 36 122 29 91 49 158 74 250 8 28 21 73 30 102 8 28 15 60 15
71 0 10 6 38 14 63 48 157 116 551 151 889 21 201 21 793 0 969 -21 167 -43
315 -57 371 -6 25 -14 65 -18 90 -4 25 -12 65 -19 90 -7 25 -20 72 -28 105
-18 67 -104 333 -123 380 -49 120 -112 268 -120 284 -4 9 -25 50 -46 91 -20
41 -45 89 -54 105 -9 17 -36 65 -59 107 -24 43 -47 81 -52 84 -6 3 -15 16 -20
27 -5 12 -18 36 -29 52 -11 17 -23 37 -27 45 -4 8 -11 20 -15 25 -28 35 -78
105 -78 110 0 4 -6 13 -12 20 -19 21 -30 36 -62 83 -16 23 -33 42 -37 42 -5 0
-9 6 -9 13 -1 25 -306 367 -449 502 -40 39 -94 89 -119 113 -24 23 -46 42 -48
42 -2 0 -22 18 -46 40 -24 23 -55 48 -70 58 -16 9 -28 20 -28 24 0 4 -5 8 -10
8 -6 0 -21 11 -34 25 -13 14 -26 25 -30 25 -4 0 -33 20 -64 45 -31 25 -68 54
-82 65 -14 11 -30 20 -37 20 -6 0 -13 4 -15 9 -4 11 -166 121 -178 121 -4 0
-13 6 -19 13 -6 8 -31 24 -56 37 -25 13 -45 27 -45 32 0 4 -5 8 -11 8 -6 0
-43 19 -82 42 -40 23 -103 58 -142 78 -38 20 -79 41 -90 46 -11 6 -42 21 -70
34 -27 13 -63 30 -80 38 -46 24 -56 28 -115 52 -30 12 -79 33 -108 46 -29 13
-59 24 -67 24 -8 0 -34 8 -57 19 -52 22 -97 39 -158 56 -25 8 -72 23 -105 34
-33 11 -94 29 -135 40 -41 11 -118 31 -170 45 -53 14 -104 26 -115 26 -10 0
-58 9 -105 19 -126 29 -362 71 -395 71 -16 0 -95 9 -175 19 -291 39 -864 51
-1285 29z m615 -2617 c260 -33 451 -102 655 -236 74 -48 88 -60 184 -156 114
-114 161 -166 161 -178 0 -7 7 -14 15 -17 8 -4 15 -12 15 -20 0 -7 6 -17 13
-21 8 -4 17 -15 20 -23 4 -8 16 -28 27 -45 11 -16 23 -37 27 -45 3 -8 10 -17
13 -20 4 -3 24 -45 45 -95 20 -49 43 -105 51 -123 8 -18 14 -43 14 -55 0 -12
7 -44 15 -71 21 -68 20 -350 0 -471 -23 -131 -45 -235 -60 -275 -6 -19 -20
-60 -29 -90 -15 -49 -23 -72 -56 -155 -31 -78 -105 -230 -142 -290 -10 -16
-21 -37 -25 -45 -4 -8 -43 -68 -87 -134 -45 -65 -85 -126 -91 -135 -5 -9 -16
-20 -22 -24 -7 -4 -13 -14 -13 -22 0 -7 -4 -15 -8 -17 -5 -1 -38 -39 -74 -84
-135 -166 -259 -291 -558 -564 -30 -28 -25 -23 -189 -156 -64 -52 -124 -102
-134 -109 -9 -8 -20 -15 -23 -15 -4 0 -22 -14 -41 -31 -19 -16 -40 -28 -46
-26 -9 3 -14 106 -19 368 -3 200 -11 472 -17 604 -6 132 -11 308 -11 390 1 83
-6 377 -15 655 -55 1851 -53 1736 -27 1743 45 12 300 5 432 -12z"/>
<path d="M16057 11513 c-196 -306 -354 -560 -350 -564 6 -6 582 -328 1135
-634 l77 -43 333 503 c403 609 375 565 357 576 -86 53 -1191 719 -1192 719 -1
-1 -163 -251 -360 -557z"/>
<path d="M18185 11953 c-372 -573 -643 -999 -637 -1004 4 -4 252 -141 552
-304 300 -164 576 -315 614 -336 l69 -37 368 531 c203 293 368 534 369 537 0
5 -137 84 -935 543 -143 82 -274 158 -292 169 l-31 19 -77 -118z"/>
<path d="M32025 11986 c-119 -27 -226 -81 -340 -169 -408 -318 -778 -948
-1066 -1817 -170 -514 -249 -912 -249 -1248 1 -336 67 -591 211 -813 186 -284
466 -461 833 -525 225 -39 530 -37 731 5 255 53 490 202 663 419 114 143 163
226 331 555 84 163 154 297 157 297 12 0 129 -255 164 -356 64 -185 90 -330
97 -529 4 -147 2 -183 -16 -270 -142 -689 -1077 -993 -3211 -1043 -168 -4
-2375 -5 -4905 -2 l-4600 6 -115 26 c-63 14 -158 40 -210 57 -442 148 -920
558 -1299 1116 -113 168 -185 290 -426 730 -322 587 -383 691 -519 885 -204
291 -399 360 -612 218 -109 -73 -179 -155 -396 -468 -323 -465 -423 -630 -467
-774 -73 -237 40 -1055 305 -2205 221 -962 298 -1390 355 -1984 26 -273 36
-757 20 -1007 -21 -345 -81 -800 -147 -1133 -9 -43 -14 -80 -12 -83 2 -2 30
-15 61 -28 52 -24 57 -24 66 -8 48 92 254 597 341 837 172 475 258 807 311
1190 28 196 35 711 14 940 -62 665 -154 1188 -425 2410 -80 363 -81 335 9 417
74 68 124 92 191 92 149 1 247 -119 576 -710 408 -734 550 -941 853 -1245 163
-162 260 -241 433 -348 272 -170 519 -258 813 -291 150 -16 10345 -9 10545 8
1091 92 1678 281 2134 687 285 254 444 504 611 960 245 667 344 1021 376 1335
17 173 1 556 -37 840 -136 1039 -579 1933 -1332 2685 -198 199 -307 274 -467
325 -89 28 -263 36 -350 16z m-155 -1656 c176 -58 389 -180 599 -340 239 -182
460 -402 542 -540 37 -63 39 -70 39 -153 l0 -87 -37 -15 c-292 -122 -683 -189
-963 -165 -518 44 -957 228 -1072 450 -31 60 -37 189 -13 294 15 70 80 217
122 277 31 46 119 136 169 174 86 66 218 123 319 139 73 11 207 -4 295 -34z"/>
<path d="M7765 11219 c-27 -5 -90 -13 -139 -19 -49 -6 -127 -19 -175 -30 -47
-11 -129 -30 -181 -41 -52 -12 -126 -31 -165 -43 -38 -13 -104 -33 -145 -46
-107 -33 -208 -69 -258 -91 -23 -10 -47 -19 -52 -19 -6 0 -29 -8 -53 -19 -23
-10 -76 -33 -117 -51 -79 -35 -233 -105 -262 -121 -10 -5 -27 -13 -38 -19 -38
-19 -108 -57 -197 -106 -27 -15 -64 -35 -83 -46 -100 -54 -171 -95 -223 -129
-32 -22 -62 -39 -66 -39 -4 0 -21 -11 -37 -25 -16 -14 -34 -25 -40 -25 -6 0
-19 -9 -29 -20 -10 -11 -23 -20 -29 -20 -6 0 -24 -11 -40 -25 -16 -13 -37 -27
-47 -30 -11 -4 -19 -10 -19 -15 0 -5 -8 -11 -19 -15 -10 -3 -29 -15 -42 -26
-13 -11 -60 -44 -104 -74 -45 -30 -88 -61 -95 -70 -7 -8 -16 -15 -21 -15 -5 0
-17 -7 -26 -15 -19 -16 -132 -105 -173 -136 -82 -63 -258 -205 -276 -223 -12
-12 -34 -32 -50 -45 -117 -98 -225 -195 -327 -293 -50 -49 -94 -88 -99 -88 -4
0 -8 -3 -8 -7 0 -5 -78 -87 -173 -184 -94 -96 -201 -209 -237 -249 -36 -40
-76 -86 -90 -101 -14 -15 -43 -49 -65 -75 -22 -26 -56 -66 -75 -88 -19 -22
-39 -47 -45 -54 -5 -7 -17 -21 -25 -31 -61 -70 -170 -211 -170 -220 0 -6 -4
-11 -9 -11 -4 0 -21 -19 -37 -42 -16 -24 -32 -45 -35 -48 -24 -20 -450 -634
-472 -680 -4 -8 -16 -28 -27 -45 -11 -16 -25 -40 -31 -52 -7 -13 -15 -23 -19
-23 -4 0 -10 -8 -14 -17 -3 -10 -17 -36 -30 -58 -14 -22 -25 -47 -26 -56 0
-14 46 -48 52 -38 2 2 12 20 22 39 21 38 50 84 142 225 70 108 80 123 95 153
7 12 16 22 21 22 4 0 8 5 8 10 0 12 41 73 53 78 4 2 7 8 7 14 0 5 8 20 17 33
10 12 25 33 33 45 8 12 21 28 28 36 6 7 12 15 12 19 0 5 38 58 174 241 34 45
68 92 76 104 8 13 23 30 33 39 9 8 17 21 17 29 0 7 7 15 15 18 8 4 15 12 15
20 0 7 6 17 13 21 6 4 48 53 92 108 43 55 85 107 92 115 7 8 32 37 56 65 23
27 50 57 60 67 9 10 17 21 17 26 0 4 8 15 18 23 9 9 64 67 122 129 199 215
225 243 345 360 186 183 228 222 394 368 14 13 37 33 51 46 25 22 179 148 233
189 16 12 37 30 48 40 10 9 22 17 25 17 4 0 21 12 39 28 57 48 75 62 81 62 4
0 21 12 39 28 53 44 69 56 98 71 15 8 27 18 27 21 0 4 14 13 30 20 17 7 30 15
30 19 0 3 23 20 51 36 27 17 62 40 77 52 15 13 32 23 38 23 6 0 19 9 29 20 10
11 23 20 29 20 6 0 24 11 40 25 16 14 33 25 37 25 4 0 34 17 66 39 32 21 85
52 117 70 33 17 64 35 70 40 6 5 45 27 86 49 41 21 95 50 120 64 43 23 60 32
113 60 12 6 36 18 52 25 17 8 38 18 48 24 34 18 53 27 102 49 28 12 73 33 100
45 28 13 75 33 105 45 30 12 79 33 108 46 29 13 59 24 67 24 8 0 32 9 52 20
21 11 45 20 54 20 9 0 38 8 65 19 225 85 678 189 907 207 l77 6 0 34 c0 33 -1
34 -37 33 -21 -1 -60 -5 -88 -10z"/>
<path d="M36815 10643 c-60 -7 -181 -36 -231 -54 -48 -18 -53 -24 -112 -122
-173 -289 -244 -573 -221 -888 7 -108 35 -268 48 -282 4 -4 34 2 67 13 270 93
608 88 889 -12 92 -33 260 -119 360 -185 533 -351 1053 -1102 1388 -2005 94
-253 205 -613 192 -626 -21 -21 -422 -112 -620 -141 -622 -90 -1288 -90 -1908
0 -621 90 -1103 271 -1363 512 l-68 64 -1 269 c0 244 2 279 23 373 13 57 21
105 19 107 -2 2 -24 7 -49 10 -53 7 -38 34 -125 -221 -141 -413 -202 -762
-190 -1085 16 -429 128 -711 371 -937 169 -157 370 -258 661 -329 282 -69 635
-94 1318 -94 960 0 1438 71 1836 275 400 204 652 547 740 1005 28 149 41 283
42 450 1 161 -1 170 -65 425 -107 420 -213 814 -267 990 -290 939 -678 1600
-1189 2025 -36 29 -115 87 -176 127 -355 233 -742 346 -1179 342 -88 -1 -173
-4 -190 -6z"/>
<path d="M24947 4023 c-3 -5 -80 -237 -171 -518 -92 -280 -210 -638 -261 -794
-52 -157 -93 -286 -91 -288 2 -2 28 8 57 23 l54 26 53 167 c175 545 354 1096
358 1100 2 2 5 2 7 0 2 -2 71 -200 152 -439 230 -672 208 -615 236 -612 13 1
84 6 156 10 73 5 135 10 137 13 3 2 -28 99 -69 214 -245 702 -369 1053 -377
1078 l-10 27 -113 0 c-63 0 -116 -3 -118 -7z"/>
<path d="M19600 3981 c0 -16 10 -19 68 -23 123 -9 206 -76 243 -198 19 -63 19
-95 17 -1340 l-3 -1275 -23 -56 c-46 -114 -127 -178 -239 -187 -45 -3 -63 -9
-63 -19 0 -12 122 -14 858 -10 817 4 862 5 962 24 585 116 1036 562 1161 1150
27 127 37 392 19 530 -46 374 -206 694 -476 953 -285 274 -676 429 -1159 460
-83 5 -423 10 -757 10 -587 0 -608 -1 -608 -19z m1535 -111 c263 -56 466 -158
644 -325 244 -231 394 -549 447 -949 20 -150 14 -455 -11 -591 -51 -281 -190
-544 -386 -731 -207 -197 -380 -269 -728 -304 -210 -21 -522 -8 -638 25 -117
34 -183 122 -203 268 -6 51 -10 515 -10 1332 l0 1253 28 6 c23 5 152 22 292
40 19 2 132 3 250 1 171 -3 235 -8 315 -25z"/>
<path d="M28920 3981 c0 -16 10 -19 68 -23 50 -4 83 -13 121 -34 65 -35 93
-67 123 -141 l23 -58 3 -948 3 -948 37 7 c20 4 80 18 132 31 52 14 105 27 118
30 l22 5 0 999 0 999 428 0 c466 0 505 -4 587 -57 48 -31 78 -63 113 -122 30
-51 62 -143 62 -178 0 -14 6 -23 15 -23 13 0 15 33 15 240 l0 240 -935 0
c-906 0 -935 -1 -935 -19z"/>
<path d="M32140 3981 c0 -16 9 -19 68 -23 118 -7 215 -73 249 -171 17 -49 18
-123 18 -1353 l0 -1301 -35 -69 c-54 -106 -143 -164 -254 -164 -34 0 -46 -4
-46 -15 0 -13 63 -15 505 -15 420 0 505 2 505 14 0 9 -19 15 -63 18 -137 11
-240 104 -273 247 -11 45 -14 318 -14 1404 l0 1347 420 0 c440 0 488 -4 570
-45 94 -48 172 -167 196 -297 3 -23 12 -38 20 -38 12 0 14 42 14 240 l0 240
-940 0 c-915 0 -940 -1 -940 -19z"/>
<path d="M35945 3818 c-239 -731 -430 -1314 -450 -1373 -13 -38 -110 -332
-215 -652 -202 -616 -243 -720 -325 -811 -51 -57 -141 -107 -211 -118 -28 -4
-44 -11 -44 -20 0 -12 61 -14 365 -14 318 0 365 2 365 15 0 10 -10 15 -33 15
-55 0 -131 28 -159 57 -36 40 -47 63 -54 125 -10 84 15 186 148 593 66 204
127 391 134 418 l15 47 543 0 544 0 15 -37 c47 -122 306 -927 312 -971 9 -70
-9 -143 -44 -176 -32 -30 -132 -56 -223 -56 -45 0 -58 -3 -58 -15 0 -13 63
-15 510 -15 428 0 510 2 510 14 0 9 -17 16 -46 21 -117 17 -172 54 -242 160
-57 87 -104 203 -241 595 -194 557 -448 1283 -636 1820 l-191 545 -116 3 -116
3 -57 -173z m318 -862 c140 -405 251 -738 249 -741 -8 -7 -992 -6 -992 1 0 4
49 158 109 343 60 185 167 514 236 731 129 401 134 414 141 407 2 -2 118 -335
257 -741z"/>
<path d="M31040 2930 c-12 -16 -19 -30 -16 -30 2 0 14 14 26 30 12 17 19 30
16 30 -2 0 -14 -13 -26 -30z"/>
<path d="M30940 2798 c-99 -123 -280 -303 -410 -407 -402 -323 -867 -525
-1400 -608 -177 -28 -589 -25 -765 5 -164 28 -278 59 -430 117 -238 91 -596
261 -770 367 -364 222 -777 357 -1219 399 -176 16 -511 7 -686 -20 -484 -74
-918 -255 -1312 -546 -194 -144 -444 -397 -570 -576 l-30 -44 28 31 c16 17 69
77 118 132 240 275 582 524 941 686 417 188 896 278 1311 247 307 -23 495 -68
774 -184 193 -81 476 -217 595 -287 323 -190 527 -279 820 -355 901 -237 1892
-10 2600 596 109 93 282 271 364 374 62 78 125 165 118 165 -1 0 -36 -42 -77
-92z"/>
<path d="M33857 2721 c-31 -117 -103 -199 -196 -224 -18 -4 -21 -13 -21 -65
l0 -60 34 -6 c82 -16 164 -115 188 -228 7 -35 17 -58 25 -58 10 0 13 70 13
355 0 282 -3 355 -13 355 -7 0 -20 -29 -30 -69z"/>
<path d="M25378 2553 c-14 -4 -15 -9 -7 -31 6 -15 46 -128 89 -252 43 -124
133 -382 200 -575 163 -466 180 -523 180 -604 0 -82 -21 -128 -71 -153 -41
-21 -131 -38 -201 -38 -36 0 -48 -4 -48 -15 0 -13 63 -15 505 -15 421 0 505 2
505 14 0 9 -22 18 -62 26 -34 6 -79 20 -99 31 -103 52 -185 210 -336 644 -59
171 -159 459 -223 640 l-115 330 -150 1 c-83 1 -158 0 -167 -3z"/>
<path d="M8190 2065 c-19 -7 -51 -16 -71 -19 -34 -6 -37 -9 -43 -53 -3 -25 -6
-75 -6 -111 0 -116 -43 -338 -76 -389 -19 -31 -29 -29 -51 10 -26 44 -50 156
-69 322 -9 77 -18 142 -19 144 -3 3 -167 -28 -171 -32 -1 -1 -5 -123 -9 -272
-5 -193 -4 -283 5 -315 6 -25 15 -61 19 -80 7 -31 16 -53 43 -100 4 -8 11 -22
15 -30 15 -33 92 -110 109 -110 7 0 25 -7 40 -15 38 -20 78 -19 138 2 101 37
189 176 210 333 15 106 -1 730 -18 729 -6 0 -27 -6 -46 -14z"/>
<path d="M29539 1775 c-4 -4 -83 -25 -241 -66 l-36 -9 -4 -273 c-4 -257 -5
-275 -28 -332 -45 -114 -155 -195 -267 -195 -32 0 -43 -4 -43 -15 0 -13 62
-15 500 -15 415 0 500 2 500 14 0 9 -19 15 -63 18 -76 6 -128 32 -183 90 -92
95 -104 155 -104 526 0 211 -3 262 -13 262 -8 0 -16 -2 -18 -5z"/>
<path d="M23333 1468 c-15 -20 -25 -38 -20 -38 3 0 12 11 21 25 17 26 16 35
-1 13z"/>
<path d="M23905 1032 c-59 -67 -108 -99 -186 -119 -40 -10 -69 -23 -69 -30 0
-10 75 -13 365 -13 318 0 365 2 365 15 0 10 -10 15 -33 15 -54 0 -138 30 -168
60 -16 15 -33 48 -40 74 l-11 46 -92 -1 -91 -1 -40 -46z"/>
</g>
</svg>
