<svg width="512" height="512" viewBox="0 0 512 512" fill="none" xmlns="http://www.w3.org/2000/svg">
<rect width="512" height="512" rx="35" fill="white"/>
<g clip-path="url(#clip0_648_2415)">
<path d="M229.648 125.315H244.474L244.845 125.685V285.064H229.277V125.685L229.648 125.315Z" fill="#006269"/>
<path fill-rule="evenodd" clip-rule="evenodd" d="M301.185 125.315H294.513L287.842 126.056L282.282 127.539L276.351 130.133L271.163 133.469L267.826 136.434L264.491 140.141L261.897 143.476L258.56 149.778L256.707 155.337L255.595 162.009V168.31L256.707 175.352L258.189 179.8L260.413 184.618L263.75 189.808L266.344 192.773L271.163 197.22L275.239 199.815L281.17 202.78L287.472 204.633L290.066 205.375L284.876 206.487L278.576 208.711L273.386 211.676L268.567 215.382L264.491 219.83L261.156 224.648L258.189 230.579L256.336 236.88L255.595 242.069V248.37L256.707 255.042L258.56 260.601L260.785 265.049L264.491 270.609L269.308 275.427L274.127 279.134L278.947 281.728L284.505 283.952L290.066 285.064H335.285V239.845L334.914 237.25L333.061 230.949L330.465 225.39L326.76 219.83L321.94 215.012L318.235 212.046L312.674 208.711L307.857 206.857L301.185 205.375V205.004L303.779 204.633L308.969 203.151L315.27 200.186L320.829 196.479L326.018 191.29L329.354 186.842L331.949 182.024L334.173 176.093L335.285 170.534V125.315H320.829L320.458 125.685L320.088 169.051L318.605 174.611L317.123 177.576L314.158 181.653L309.71 185.73L304.89 188.325L299.332 189.808H291.548L288.213 189.066L283.764 187.213L279.688 184.618L276.721 181.653L273.757 177.576L271.904 173.128L270.792 167.939V162.009L271.904 157.19L274.498 152.001L276.721 149.036L281.17 144.959L287.099 141.994L291.919 140.882L301.555 140.511V125.685L301.185 125.315ZM299.334 220.2H291.92L287.473 221.312L282.654 223.536L278.207 226.872L275.613 229.837L273.018 233.914L271.165 239.103L270.424 245.034L271.165 251.335L272.647 255.412L275.613 260.601L278.578 263.566L281.913 266.161L287.844 269.126L293.404 270.238H320.462V241.698L319.35 236.879L317.125 232.061L314.16 228.355L309.711 224.277L303.782 221.312L299.334 220.2Z" fill="#006269"/>
<path fill-rule="evenodd" clip-rule="evenodd" d="M77.6874 125.315H218.164L218.535 125.685V169.051L217.421 175.723L215.198 182.024L212.603 186.842L209.267 191.29L204.079 196.479L198.519 200.186L192.959 202.78L186.658 204.633L184.063 205.375L189.253 206.487L195.554 208.711L200.743 211.676L204.449 214.641L208.156 217.977L211.862 222.795L215.198 228.726L217.421 235.397L218.164 238.733L218.535 242.069V285.064H172.944L167.755 283.952L161.825 281.728L157.006 279.134L152.188 275.427L147.369 270.609L143.663 265.049L140.698 258.748L139.215 253.559L138.474 247.999V242.81L139.215 236.88L141.068 230.579L144.033 224.648L147.369 219.83L151.446 215.382L156.265 211.676L160.713 209.081L166.272 206.857L172.944 205.375L172.573 205.004L167.384 203.892L162.936 202.41L157.006 199.444L152.558 196.109L148.111 192.031L144.775 187.584L141.439 181.283L139.586 175.723L138.474 168.681V163.121L139.215 157.19L141.068 151.26L144.033 145.33L146.999 140.511L75.4636 140.882L69.5332 142.365L64.3441 144.959L59.5257 148.665L56.5604 152.001L53.5953 157.19L51.7421 162.009L51.0008 166.086V172.387L52.1127 177.947L53.9659 182.765L56.9312 187.213L59.155 189.808L59.8963 190.178V190.919L61.379 191.661L65.0854 194.255L70.2745 196.479L74.7223 197.591L88.8069 197.962L96.2198 199.444L102.15 201.668L107.71 204.633L112.158 207.969L116.606 212.046L120.312 216.865L123.648 222.424L125.872 227.984L127.354 234.285L127.725 237.25V245.775L126.613 252.076L124.389 258.748L121.795 263.937L118.088 269.126L114.011 273.574L109.563 277.28L104.003 280.616L97.7025 283.211L92.1426 284.693L89.9188 285.064H35.8042V270.238L88.0656 269.868L93.996 268.385L99.185 265.79L103.633 262.455L106.969 258.748L109.934 253.559L111.416 249.852L112.528 243.922V238.362L111.046 231.691L108.081 225.76L105.486 222.424L102.521 219.459L97.3317 216.123L92.5134 214.27L86.9537 213.158L73.2396 212.788L66.1973 211.305L60.6376 209.081L54.7072 205.745L51.0008 202.78L47.2943 199.444L43.5878 194.997L40.252 189.437L37.2868 182.024L35.8042 174.611V164.603L36.9161 158.302L39.14 152.001L41.7346 146.812L45.4411 141.623L49.5182 137.175L53.5953 133.84L57.6725 131.245L63.6028 128.28L69.5332 126.427L77.6874 125.315ZM175.173 140.882H203.342V169.051L201.86 174.981L199.265 179.8L195.188 184.248L190.37 187.583L184.439 189.807L182.215 190.178H174.432L169.984 189.066L165.536 187.213L161.089 183.877L157.753 180.17L155.158 175.723L153.676 170.904L153.305 169.051V163.121L154.417 157.932L157.382 152.001L160.347 148.295L163.683 145.33L169.243 142.364L175.173 140.882ZM182.215 220.2H174.803L170.355 221.312L165.536 223.536L161.089 226.872L158.494 229.837L155.9 233.914L154.046 239.103L153.305 244.292L153.676 249.481L154.417 252.447L156.27 256.895L158.865 260.972L161.459 263.566L164.795 266.161L170.725 269.126L176.285 270.238H203.342L203.713 255.782V244.292L203.342 240.586L202.231 236.509L199.636 231.32L196.671 227.613L192.594 224.277L186.663 221.312L182.215 220.2Z" fill="#006269"/>
<path d="M80.279 308.045H84.356L84.7267 331.395L85.4681 332.508H162.192L163.304 331.395L163.675 322.87H168.123L168.493 331.395L169.605 332.508L170.346 331.395L172.57 327.318L176.277 323.24L179.983 321.017L182.207 320.276H187.767L190.732 321.758L192.956 324.354L194.068 328.801V332.879H211.859L210.747 328.801L209.264 326.577L207.782 325.466L204.446 324.724L198.516 325.095V321.387L201.11 320.276H207.411L210.747 321.758L213.712 324.354L215.566 328.06L216.308 332.879H222.237V308.416L222.607 308.045H226.315L226.685 308.416V336.955H168.864L167.381 335.843L165.528 336.585L164.416 336.955H83.6147L81.3909 335.473L80.279 333.62L79.9082 331.765V308.416L80.279 308.045Z" fill="#006269"/>
<path d="M266.351 308.045H270.057L270.427 308.416V332.879L361.608 332.508L362.72 331.765L363.09 322.87H367.537L367.908 331.024L368.278 332.508H369.39L371.615 328.06L374.58 324.354L377.915 321.758L381.623 320.276H387.181L390.148 321.758L392.371 324.354L393.483 328.06V336.955H368.649L366.796 335.843L364.943 336.585L363.832 336.955L270.427 337.326L269.316 341.031L266.722 343.998L263.014 345.48L257.085 345.851L253.748 345.109L250.042 342.886L247.819 339.179L247.448 337.696V329.171L247.819 328.801H251.525L251.895 334.732L252.636 338.067L253.377 339.92L256.714 341.031H261.161L264.128 339.92L265.239 338.067L265.61 336.214L265.98 308.416L266.351 308.045Z" fill="#006269"/>
<path d="M457.604 308.045H461.683L462.053 329.171L462.794 331.765L463.906 332.508L469.466 332.879V308.045H473.543L473.913 308.416V336.955H463.165L461.312 335.843L459.457 336.585L458.346 336.955H450.932L449.079 335.843L447.227 336.585L446.115 336.955H422.393L421.652 340.661L420.169 342.886L417.946 344.739L415.35 345.48L412.386 345.851H408.309V341.404L413.497 341.031L416.834 339.92L417.575 338.808L417.946 336.955H411.274L408.309 335.473L406.827 333.62L406.084 331.765V326.948L407.568 323.613L409.421 321.758L411.274 320.646L412.015 320.276H416.834L419.058 321.387L421.281 323.983L422.393 327.689V332.879L443.891 332.508L444.633 332.136L445.003 331.024L445.374 320.646H449.45L449.821 321.017L450.191 331.024L451.675 332.508H456.122L456.863 332.136L457.234 331.024L457.604 308.045Z" fill="#006269"/>
<path fill-rule="evenodd" clip-rule="evenodd" d="M360.862 125.315H346.778L346.406 125.685V174.611L347.519 180.171L349.372 184.989L352.337 190.178L355.674 194.255L360.491 198.703L366.052 202.039L371.981 204.263L377.541 205.375L375.318 205.745L370.128 207.228L365.681 209.081L360.862 212.046L356.785 215.382L354.19 218.347L351.225 222.424L347.89 229.467L346.406 235.768V285.064H360.862L361.232 239.845L361.603 236.88L362.344 234.285L364.94 229.096L367.534 226.131L371.61 223.166L376.059 221.313L379.765 220.571H384.213L386.437 220.942L390.885 222.424L394.962 225.019L397.556 227.614L400.151 231.691L402.004 237.25L402.375 285.064H417.2L417.572 240.957L417.943 237.621L418.684 234.656L421.278 229.467L423.872 226.502L427.209 223.907L430.914 222.054L435.363 220.942H441.663L444.629 221.683L450.558 224.648L454.266 228.355L456.489 232.061L457.972 235.768L458.713 240.586L459.083 285.064H473.91V236.88L473.539 234.285L472.428 230.208L470.573 225.76L467.608 220.571L464.273 216.494L459.454 212.417L454.266 209.081L448.335 206.857L442.775 205.745L446.112 205.004L450.929 203.521L455.007 201.668L459.824 198.703L462.791 196.109L466.867 191.661L469.832 187.213L472.428 181.283L473.91 174.611V125.685L472.798 125.315H460.566L459.083 125.685L458.713 167.198L458.342 173.87L457.601 176.835L455.007 182.024L452.782 184.618L450.929 186.472L447.223 189.066L442.033 190.919H434.62L432.767 190.549L429.062 189.066L424.242 185.73L422.019 183.136L419.795 179.429L418.313 175.352L417.572 170.163L417.2 125.685L416.829 125.315H402.745L402.375 125.685L402.004 173.128L401.263 176.093L399.781 179.429L397.185 183.507L393.85 186.472L389.031 189.066L384.213 190.178H379.023L376.8 189.808L372.722 188.325L368.646 185.73L366.052 183.136L363.826 179.8L362.344 176.464L361.232 171.275L360.862 125.315ZM410.896 192.773L409.414 192.032L407.191 194.626L402.371 198.703L397.183 201.668L392.735 203.522L386.062 205.004L385.321 205.745L391.623 206.857L397.554 209.081L403.112 212.417L406.82 215.753L409.414 218.718L410.526 219.089L412.379 216.865L414.974 214.641L418.68 211.676L422.756 209.452L428.317 207.228L433.877 206.116L434.618 205.375L430.17 204.634L425.352 203.151L419.421 200.186L414.233 196.479L410.896 192.773Z" fill="#006269"/>
<path d="M232.985 366.606H235.579L239.286 367.718L241.139 368.83L243.363 371.796L244.474 375.502V379.58L243.363 383.286L241.139 386.25L237.432 388.105L233.355 388.476L230.019 387.734L227.054 385.509L225.572 383.656L224.46 380.692L224.089 376.614L225.201 372.167L226.683 369.943L229.277 367.718L232.985 366.606Z" fill="#006269"/>
<path d="M441.668 366.606L445.744 366.977L448.709 368.459L450.564 370.314L452.416 374.02L452.787 378.839L452.046 382.174L450.193 385.139L447.597 387.364L445.744 388.105L441.668 388.476L438.331 387.734L436.108 386.25L433.884 383.656L432.772 381.062L432.402 376.243L433.143 372.537L435.366 369.2L438.331 367.347L441.668 366.606Z" fill="#006269"/>
<path d="M288.213 367.347H293.032L295.256 368.459L296.368 369.571L298.22 368.089L299.705 367.347H305.263L307.859 368.83L308.971 370.683L309.341 372.165V388.103L308.971 388.474H305.263L304.893 388.103L304.522 372.906L303.04 371.424H300.075L298.22 372.535L297.479 374.02L297.109 388.103L296.738 388.474H293.032L292.662 388.103L292.291 372.535L291.921 371.424H288.213L286.36 372.535L285.249 374.39L284.878 388.103L284.507 388.474H280.802V367.718H284.507V369.2L288.213 367.347Z" fill="#006269"/>
<path d="M255.599 367.347H260.787L263.01 368.83L263.753 369.571L266.347 367.718L267.459 367.347H272.649L275.243 368.83L276.725 371.053V388.474H272.649L272.276 373.277L271.535 371.794L270.794 371.424H267.83L265.977 372.535L265.235 373.277L264.865 374.761L264.494 388.474H260.416L260.046 373.277L259.305 371.794L258.563 371.424H255.599L253.744 372.535L253.003 374.02L252.632 388.103L252.262 388.474H248.186V367.718H252.262L252.632 369.2L254.485 367.718L255.599 367.347Z" fill="#006269"/>
<path d="M154.04 366.606L159.23 366.977L161.824 368.459L162.936 369.943L163.307 371.426V384.397H165.16V387.734L163.307 388.476L160.712 388.105L159.6 386.991V386.25L155.894 388.105L151.817 388.476L148.11 387.364L146.257 385.509L145.886 384.397V379.951L147.369 377.725L149.963 376.243L155.523 375.131L158.488 374.39V371.796L157.376 371.055H152.558L151.446 371.426L150.705 374.39H146.628V371.796L147.739 369.573L149.963 367.718L151.817 366.977L154.04 366.606Z" fill="#006269"/>
<path d="M394.222 366.606L399.412 366.977L402.006 368.459L403.118 369.943L403.488 371.426V384.397H405.341V387.734L402.006 388.476L400.153 387.734L399.783 386.25L396.075 388.105L391.999 388.476L388.293 387.364L386.438 385.509L386.068 384.397V379.951L387.55 377.725L390.146 376.243L397.93 374.761L399.042 373.649L398.3 371.426L397.559 371.055H393.111L391.628 371.426L390.887 374.39H386.809V371.796L387.921 369.573L390.146 367.718L391.999 366.977L394.222 366.606Z" fill="#006269"/>
<path d="M46.9236 358.822H51.3714L55.078 359.934L58.0431 362.158L59.5257 364.012L60.6376 366.606V368.83H56.5604L54.7072 365.495L52.4834 363.642L51.0008 363.271H46.9236L43.2172 365.124L41.7346 367.347L40.6226 371.424V375.502L41.7346 379.578L43.2172 381.803L45.0704 383.286L47.2943 384.027H50.6301L53.5953 382.545L55.4485 380.319L56.5604 376.614H61.0082L60.6376 380.319L58.7844 384.027L55.8193 386.621L52.4834 388.103L47.6649 388.474L43.9585 387.733L40.9933 386.25L38.3987 383.656L36.5455 379.949L35.8042 377.355V370.312L37.2868 365.495L39.8813 362.158L43.2172 359.934L46.9236 358.822Z" fill="#006269"/>
<path d="M206.299 358.822H210.746L214.453 359.934L216.676 361.416L219.272 364.383L220.013 366.236V368.83H215.935L214.082 365.495V364.753L212.6 364.012L210.376 363.271H206.299L203.333 364.753L201.48 366.977L200.368 369.571L199.998 371.794V375.131L201.109 379.578L202.592 381.803L204.445 383.286L206.669 384.027H210.005L213.712 382.174L215.194 379.578L215.935 376.614H220.384V379.208L218.901 382.915L215.935 386.25L212.97 387.733L209.634 388.474L204.816 388.103L201.109 386.621L198.144 384.027L196.291 380.69L195.179 376.614V370.312L196.291 366.606L198.515 362.899L201.109 360.675L204.445 359.193L206.299 358.822Z" fill="#006269"/>
<path d="M57.6725 318.423H62.4909L64.3441 319.164V323.611L62.4909 323.24H58.0431L55.8193 324.723V326.948L58.7844 328.801L62.4909 330.654L63.9735 332.506L64.3441 335.473L63.2322 338.437L61.379 340.29L58.4137 341.773L55.4485 342.514H45.4411L40.6226 341.031L37.6574 338.808L36.5455 337.326L35.8042 335.102V328.06H39.8813L40.6226 334.359L41.7346 336.214L45.0704 337.696L46.9236 338.067H53.9659L57.3018 337.326L59.155 336.214V334.359L53.2247 331.024L51.3714 328.801L51.0008 327.689V325.093L52.1127 322.129L54.7072 319.535L57.6725 318.423Z" fill="#006269"/>
<path d="M463.901 367.347H469.09L471.314 368.459L473.167 370.683L473.908 374.02V388.103L473.537 388.474H469.832L469.461 388.103L469.09 372.906L468.349 371.794L467.236 371.424H464.271L462.418 372.535L461.307 374.02L460.936 375.131L460.565 388.474H456.487V367.718H460.565L460.936 369.2L462.789 367.718L463.901 367.347Z" fill="#006269"/>
<path d="M65.0856 367.347H69.1626L69.5334 382.543L71.0158 384.027H74.7223L76.5757 382.915L77.6876 379.949L78.0582 367.347H82.1354V387.733H78.0582L77.6876 386.621L75.093 388.103L71.0158 388.474L67.68 387.362L65.8267 385.509L64.7148 381.802V367.718L65.0856 367.347Z" fill="#006269"/>
<path d="M313.043 367.347H317.122L317.492 381.431L318.233 383.286L319.345 384.027H323.051L324.905 382.543L325.647 380.69L326.017 367.347H330.093L330.464 367.718V387.733H326.388V386.25L323.051 388.103L319.345 388.474L316.38 387.733L314.155 385.88L313.043 382.915V367.347Z" fill="#006269"/>
<path d="M341.585 367.347H346.773L348.998 368.459L350.851 370.683L351.221 371.794V388.474H347.516L347.143 388.103L346.773 372.906L345.661 371.794L344.92 371.424H341.955L340.102 372.535L338.991 374.02L338.62 375.131L338.248 388.474H334.171V367.718H338.248L338.62 369.2L340.473 367.718L341.585 367.347Z" fill="#006269"/>
<path d="M109.564 367.347H113.641L114.012 382.172L114.753 383.656L115.494 384.027H119.201L121.054 382.915L122.166 380.319L122.537 367.347H126.614V387.733H122.537L122.166 386.621L119.571 388.103L115.494 388.474L112.159 387.362L110.305 385.509L109.564 383.656V367.347Z" fill="#006269"/>
<path d="M371.979 366.606L376.425 366.977L379.392 368.459L381.245 370.684L381.986 372.908V374.39H377.539L376.425 371.796L375.314 371.055H371.237L369.385 372.167L368.273 374.39L367.9 376.243V379.209L369.014 382.174L370.126 383.656L371.237 384.027H374.943L376.796 382.545L377.91 379.58H381.986L382.356 380.321L380.874 384.397L378.651 386.991L376.055 388.105L371.979 388.476L368.643 387.734L365.677 385.509L363.824 382.545L363.083 378.468L363.454 374.39L364.565 371.426L366.789 368.459L369.755 366.977L371.979 366.606Z" fill="#006269"/>
<path d="M97.3349 361.789H101.783V367.718H105.489V371.426H101.783V384.397H105.489V388.476H101.412L98.8175 387.734L97.7055 386.252L97.3349 384.768V371.426H93.999V367.718H97.3349V361.789Z" fill="#006269"/>
<path d="M412.749 361.789H416.827V367.718H420.533V371.426H416.827V384.397H420.162L420.533 384.768L420.904 387.734L420.533 388.476H416.457L413.861 387.734L412.749 385.88L412.379 371.796L409.043 371.426L409.414 367.718L412.379 367.347L412.749 361.789Z" fill="#006269"/>
<path d="M397.926 308.045H401.632L402.003 308.416V336.955H397.556V308.416L397.926 308.045Z" fill="#006269"/>
<path d="M231.504 308.045H235.212L235.582 308.416V336.955H231.134V308.416L231.504 308.045Z" fill="#006269"/>
<path d="M440.921 370.684H444.257L446.109 371.796L447.592 373.649L448.333 376.245V378.839L447.221 382.174L445.368 384.029L444.257 384.399H440.921L439.067 383.286L437.584 381.433L436.843 379.209V375.874L437.955 372.908L439.808 371.055L440.921 370.684Z" fill="#E7F0F1"/>
<path d="M232.62 370.684H236.325L238.919 372.908L240.031 375.874V379.209L238.919 382.174L236.325 384.399H232.62L230.394 382.915L229.283 381.433L228.912 380.321V374.761L230.024 372.537L231.877 371.055L232.62 370.684Z" fill="#E7F0F1"/>
<path d="M71.3841 320.646H75.4611V339.549L74.3492 342.884L71.7546 345.109L68.4188 345.851H66.195L65.8242 345.48V341.402L69.1601 341.031L70.6427 339.549L71.0133 336.214L71.3841 320.646Z" fill="#006269"/>
<path d="M139.587 367.347H142.923V371.424L138.846 372.535L136.992 374.39L136.251 376.984L135.88 388.474H131.803V367.718H135.88L136.251 369.571L138.104 368.089L139.587 367.347Z" fill="#006269"/>
<path d="M169.235 360.307H173.313V388.476H169.235V360.307Z" fill="#006269"/>
<path d="M85.8438 360.307H90.2915V388.105L89.9208 388.476H86.2143L85.8438 360.307Z" fill="#006269"/>
<path d="M382.731 324.354H385.326L387.55 325.466L388.662 326.948L389.032 328.06V332.879H374.206L374.947 330.654L377.172 327.689L379.766 325.466L382.731 324.354Z" fill="#E7F0F1"/>
<path d="M183.322 324.354L187.029 324.724L188.882 326.207L189.623 328.43V332.879H174.797L175.168 331.024L177.392 328.06L180.357 325.466L183.322 324.354Z" fill="#E7F0F1"/>
<path d="M424.618 367.718H428.694V388.474H424.618V367.718Z" fill="#006269"/>
<path d="M355.299 367.718H359.377V388.474H355.299V367.718Z" fill="#006269"/>
<path d="M412.749 324.354H415.343L417.196 325.466L417.937 327.318V332.879H413.12L410.894 331.765L410.153 330.283V327.689L411.267 325.466L412.749 324.354Z" fill="#E7F0F1"/>
<path d="M158.119 378.098H158.86V381.803L157.007 383.656L155.525 384.397H151.447L150.336 383.286L149.965 381.803L151.077 379.951L153.671 378.839L158.119 378.098Z" fill="#E7F0F1"/>
<path d="M398.664 378.098H399.034V381.803L397.552 383.656L395.699 384.397H391.992L390.509 383.286V380.692L391.621 379.58L393.846 378.839L398.664 378.098Z" fill="#E7F0F1"/>
<path d="M45.8145 343.998H49.8916V348.815H45.8145L45.4438 348.074V344.368L45.8145 343.998Z" fill="#006269"/>
<path d="M424.618 360.307H428.694V365.126H424.618V360.307Z" fill="#006269"/>
<path d="M355.299 360.307H359.377V365.126H355.299V360.307Z" fill="#006269"/>
<path d="M51.7432 343.998H55.8203V348.815H51.7432V343.998Z" fill="#006269"/>
<path d="M448.34 312.121H452.418V316.939H448.34V312.121Z" fill="#006269"/>
<path d="M442.406 312.121H446.482V316.939H442.406V312.121Z" fill="#006269"/>
<path d="M182.581 312.121H186.658V316.939H182.581V312.121Z" fill="#006269"/>
</g>
<defs>
<clipPath id="clip0_648_2415">
<rect width="438.601" height="263.161" fill="white" transform="translate(35.8042 125.315)"/>
</clipPath>
</defs>
</svg>
